<svg width="56" height="72" viewBox="0 0 56 72" fill="none" xmlns="http://www.w3.org/2000/svg">
<path d="M35.7843 1.09205C35.2294 1.71078 33.9147 3.02103 32.8653 4.02798C29.3674 7.35214 28.6558 8.54107 28.5593 11.2586C28.4869 13.4666 28.9935 15.1409 30.3082 17.0456C30.658 17.5551 30.9475 17.9433 30.9475 17.8948C30.9475 17.8584 30.7304 17.3853 30.465 16.8515C29.4518 14.8133 29.1503 12.3384 29.7051 10.5792C30.2238 8.92929 30.9837 7.93447 33.5528 5.54448C34.0956 5.04707 34.759 4.35555 35.0364 4.02798L35.5551 3.42138L35.4827 5.9691C35.4465 7.65544 35.3621 8.82011 35.2294 9.4267C34.7831 11.477 33.9147 13.1027 32.3346 14.8861C31.1887 16.1842 30.8631 16.9243 31.1767 17.5309C31.2249 17.64 31.3093 18.1011 31.3576 18.5378L31.43 19.3385L30.7424 19.7995C28.4145 21.3524 26.7741 23.5968 26.1107 26.1445C25.9298 26.8239 25.8574 27.4791 25.8574 28.5345C25.8454 30.779 26.2555 32.6473 27.2928 35.0009L27.8356 36.2383L27.6426 37.2089C27.4496 38.1916 27.3893 41.1154 27.5581 41.8797C27.6185 42.183 27.6908 42.2437 27.9924 42.2437H28.3542L28.4387 40.6786C28.7523 35.0979 30.5856 31.8587 34.8917 29.2746C38.2087 27.2849 39.1857 26.1688 41.393 21.8498C43.1299 18.4165 43.6847 17.5066 45.0236 15.7717L45.7834 14.789L44.71 15.25C42.9731 16.0022 40.4763 16.7544 37.4608 17.4338C34.566 18.0768 33.2513 18.4529 32.2502 18.9624C31.9366 19.1201 31.6471 19.2536 31.6109 19.2536C31.5747 19.2536 31.5626 18.7683 31.5988 18.1617C31.6591 16.8636 31.6712 16.8393 33.5408 14.874C34.554 13.8185 34.9761 13.2604 35.3259 12.5689C36.0979 11.0281 36.1582 10.5792 36.0737 7.60691C35.9893 4.81656 36.134 2.99677 36.6165 0.97073C36.7371 0.449055 36.8336 0.0123024 36.8216 0.000171661C36.8095 -0.0119591 36.3391 0.485451 35.7843 1.09205ZM41.3447 20.115C38.9203 24.6038 37.2317 26.5085 33.3598 29.1411C32.6 29.6628 31.7074 30.3179 31.3817 30.5848C30.1876 31.5797 28.8246 33.545 28.306 35.013C28.1854 35.3648 28.0527 35.6075 28.0165 35.5468C27.8235 35.2435 27.3048 32.7686 27.1842 31.6161C26.7862 27.7945 28.1974 24.4461 31.1646 22.2017C32.8653 20.9035 34.4092 20.3091 37.5211 19.7389C38.8479 19.4962 40.9587 18.8775 41.8634 18.4771C42.0684 18.3922 42.2373 18.3316 42.2614 18.3437C42.2735 18.3558 41.8634 19.1565 41.3447 20.115Z" fill="#151618"/>
<path d="M14.5614 4.12258C15.2808 6.85604 15.4966 10.4399 15.1489 13.793C14.7173 17.9721 15.077 19.2356 17.6427 22.6737C18.338 23.597 19.1173 24.7997 19.3931 25.3343C20.1724 26.9257 20.592 29.1854 20.604 31.9067V33.0366L20.3162 32.9151C19.6448 32.6599 18.4339 32.5506 15.3887 32.4899C13.6143 32.4534 11.78 32.3684 11.3124 32.3198C10.8568 32.259 10.4612 32.2347 10.4492 32.2469C10.4252 32.259 10.665 32.4534 10.9887 32.6842C12.3434 33.6683 13.7102 34.9439 15.2928 36.7055C16.2279 37.7381 17.3429 38.8801 17.7865 39.2324C19.6808 40.751 21.8509 41.6379 24.4765 41.9537C25.5555 42.0874 25.1239 41.6743 23.3015 40.8725C20.4002 39.5847 18.9495 38.5399 16.7195 36.1466C15.8803 35.2476 14.8612 34.2879 14.4655 34.0085L13.7462 33.5225H15.1609C18.8775 33.5225 20.9756 34.2514 22.762 36.1588C23.6492 37.0942 24.2847 38.2605 24.6084 39.5118C24.7043 39.9127 24.8122 40.265 24.8481 40.3015C24.968 40.4108 24.9321 38.8679 24.8002 38.0175C24.5244 36.256 23.1337 34.3122 21.5391 33.4618L20.8438 33.0973V31.0928C20.8438 27.108 20.4961 25.7352 18.6737 22.6251C16.2639 18.4945 15.8683 16.8666 15.9402 11.1445C15.9642 9.37083 16.0001 7.91298 16.0121 7.92513C16.0121 7.93728 16.2639 8.27744 16.5516 8.67835C16.8514 9.07926 17.9184 10.282 18.9375 11.3511C21.4073 13.9387 22.3544 15.433 22.9419 17.6806C23.6013 20.1467 23.0618 23.597 21.5032 26.9257C21.2154 27.5453 20.9996 28.0556 21.0116 28.0556C21.0356 28.0556 21.2394 27.764 21.4792 27.3995C23.3615 24.5324 24.3086 21.3009 24.1648 18.2758C24.0808 16.6236 23.7571 15.3359 23.0737 13.9023C22.3784 12.4202 21.5751 11.3754 19.2492 8.93347C17.4388 7.02612 16.192 5.61687 14.8852 4.06183L14.3816 3.4544L14.5614 4.12258Z" fill="#151618"/>
<path d="M36.1806 33.8993C33.4267 34.4911 31.5545 36.9548 31.5425 39.974C31.5425 40.5779 31.5183 40.6262 31.168 40.7469C30.54 40.9643 30.9989 41.073 32.9436 41.1576C35.7216 41.2783 37.4247 40.9523 38.8741 40.0103C39.2727 39.7566 40.2752 38.9475 41.1086 38.2108C42.7996 36.7374 43.6693 36.1094 45.0946 35.3486L46.0488 34.8413L44.8892 34.7568C44.2611 34.7206 43.1378 34.5636 42.389 34.4307C41.6401 34.2979 40.4564 34.0805 39.7559 33.9597C38.2823 33.694 37.2194 33.6699 36.1806 33.8993ZM40.1665 35.409C40.7584 35.5539 41.6763 35.7109 42.1836 35.7471L43.1258 35.8316L41.8092 36.8944C39.8042 38.5127 38.4755 39.2494 36.7725 39.6842C35.9028 39.9136 32.0135 40.5054 31.929 40.4209C31.8203 40.3122 32.1706 39.189 32.5933 38.3074C33.3301 36.7736 34.7191 35.6746 36.4705 35.2278C37.3643 34.9983 38.7654 35.0708 40.1665 35.409Z" fill="#151618"/>
<path d="M9.23564 47.1115C9.09054 53.6726 9.42911 55.8922 11.0615 59.1971C11.92 60.9288 13.3106 62.9532 14.3021 63.9045C14.5439 64.1362 14.7374 64.3557 14.7374 64.3923C14.7374 64.4411 11.7265 64.4533 8.06274 64.4289C4.38683 64.4045 1.25506 64.4289 1.09786 64.4655C0.952763 64.5021 0.759295 64.6728 0.686744 64.8313C0.577918 65.0874 0.59001 65.1728 0.771386 65.3801C0.989039 65.624 1.12205 65.624 28.0626 65.624C46.5025 65.624 55.2086 65.5874 55.3779 65.5021C55.6923 65.3313 55.6923 64.6972 55.3779 64.5264C55.2207 64.4533 52.7298 64.4045 48.1107 64.4045H41.0854L41.823 63.5142C43.927 61.0142 45.2934 58.2702 46.1882 54.7702C46.4421 53.8068 46.4663 53.3921 46.5025 48.514L46.563 43.3066H27.9416H9.32028L9.23564 47.1115Z" fill="#151618"/>
<path d="M4.21712 67.2749C8.30294 69.2149 14.6009 70.7956 20.4758 71.3584C21.5154 71.4662 21.9868 71.55 21.8055 71.5979C21.5516 71.6698 21.5395 71.6817 21.745 71.6937C21.878 71.7057 22.7 71.7656 23.5583 71.8374C27.9825 72.1607 37.4597 71.9691 37.1938 71.55C37.1575 71.4901 37.1696 71.4662 37.2421 71.5021C37.3026 71.538 37.5201 71.5261 37.7136 71.4662C38.052 71.3704 38.052 71.3704 37.5806 71.3464C37.2905 71.3345 37.907 71.1908 39.0916 70.9872C42.7785 70.3645 45.8127 69.6101 48.3028 68.7C49.7292 68.1731 52.4974 66.9756 52.6908 66.784C52.7513 66.7241 43.3104 66.6762 27.91 66.6882L3.0083 66.7002L4.21712 67.2749Z" fill="#151618"/>
</svg>
