<svg width="73" height="105" viewBox="0 0 73 105" fill="none" xmlns="http://www.w3.org/2000/svg">
<path d="M45.9507 1.28621C45.2625 2.01491 43.6317 3.55806 42.33 4.74399C37.9913 8.659 37.1085 10.0593 36.9889 13.2598C36.8991 15.8603 37.5275 17.8321 39.1582 20.0754C39.5921 20.6755 39.9512 21.1327 39.9512 21.0756C39.9512 21.0327 39.6819 20.4755 39.3527 19.8468C38.096 17.4463 37.722 14.5315 38.4102 12.4597C39.0535 10.5165 39.9961 9.34484 43.1828 6.53004C43.8561 5.94421 44.679 5.12977 45.0231 4.74399L45.6664 4.02957L45.5766 7.03012C45.5318 9.01621 45.427 10.3879 45.2625 11.1023C44.7089 13.517 43.6317 15.4317 41.6717 17.5321C40.2504 19.0609 39.8465 19.9325 40.2355 20.6469C40.2953 20.7755 40.4 21.3185 40.4599 21.8329L40.5496 22.7759L39.6969 23.3189C36.8093 25.1478 34.7746 27.7911 33.9517 30.7917C33.7273 31.5918 33.6375 32.3634 33.6375 33.6065C33.6226 36.2498 34.1312 38.4502 35.4179 41.2222L36.0912 42.6796L35.8518 43.8227C35.6124 44.98 35.5376 48.4235 35.7471 49.3237C35.8219 49.6809 35.9116 49.7523 36.2857 49.7523H36.7345L36.8392 47.9091C37.2282 41.3365 39.5024 37.5215 44.8435 34.4781C48.9579 32.1348 50.1698 30.8202 52.9077 25.7336C55.0621 21.69 55.7503 20.6184 57.411 18.5751L58.3536 17.4178L57.022 17.9607C54.8676 18.8466 51.7706 19.7325 48.0303 20.5326C44.4396 21.2899 42.8088 21.7328 41.567 22.333C41.178 22.5187 40.8189 22.6759 40.7741 22.6759C40.7292 22.6759 40.7142 22.1043 40.7591 21.3899C40.8339 19.8611 40.8489 19.8325 43.1679 17.5178C44.4246 16.2747 44.9483 15.6174 45.3821 14.803C46.3397 12.9884 46.4145 12.4597 46.3097 8.95906C46.205 5.67273 46.3845 3.52948 46.983 1.14333C47.1326 0.528927 47.2523 0.0145416 47.2373 0.000255585C47.2224 -0.0140343 46.6389 0.571789 45.9507 1.28621ZM52.8478 23.6904C49.8406 28.977 47.746 31.2203 42.9435 34.3209C42.0009 34.9353 40.8938 35.7069 40.4898 36.0212C39.0086 37.1929 37.318 39.5076 36.6747 41.2365C36.5251 41.6508 36.3605 41.9366 36.3156 41.8651C36.0762 41.5079 35.4329 38.5931 35.2833 37.2357C34.7895 32.7349 36.54 28.7913 40.2205 26.148C42.33 24.6191 44.2451 23.919 48.1051 23.2474C49.7508 22.9616 52.3691 22.2329 53.4912 21.7614C53.7455 21.6614 53.955 21.59 53.9849 21.6043C53.9998 21.6185 53.4912 22.5616 52.8478 23.6904Z" fill="#151618"/>
<path d="M19.6258 4.85479C20.5181 8.07411 20.7858 12.295 20.3545 16.244C19.8192 21.166 20.2653 22.6541 23.4478 26.7033C24.3103 27.7907 25.2769 29.2072 25.619 29.8368C26.5856 31.7111 27.1061 34.3724 27.1209 37.5774V38.9081L26.764 38.765C25.9312 38.4645 24.4293 38.3358 20.652 38.2642C18.451 38.2213 16.1757 38.1211 15.5957 38.0639C15.0306 37.9924 14.5399 37.9638 14.525 37.9781C14.4953 37.9924 14.7927 38.2213 15.1942 38.4932C16.8747 39.6521 18.57 41.1545 20.533 43.2291C21.6929 44.4453 23.076 45.7903 23.6262 46.2052C25.9759 47.9937 28.6676 49.0382 31.9244 49.4102C33.2628 49.5676 32.7274 49.0812 30.467 48.1368C26.8681 46.6202 25.0687 45.3897 22.3027 42.571C21.2617 41.5122 19.9976 40.3818 19.5069 40.0527L18.6146 39.4804H20.3694C24.9795 39.4804 27.582 40.3389 29.7978 42.5853C30.8982 43.687 31.6864 45.0606 32.0879 46.5343C32.2069 47.0065 32.3408 47.4214 32.3854 47.4643C32.5341 47.5931 32.4895 45.776 32.3259 44.7744C31.9838 42.6997 30.2588 40.4104 28.2809 39.4089L27.4184 38.9796V36.6188C27.4184 31.9257 26.9871 30.3089 24.7267 26.646C21.7376 21.7813 21.2468 19.864 21.336 13.1249C21.3658 11.0359 21.4104 9.31892 21.4253 9.33323C21.4253 9.34753 21.7376 9.74816 22.0945 10.2203C22.4662 10.6925 23.7898 12.109 25.0538 13.3681C28.1173 16.4157 29.2922 18.1756 30.0208 20.8226C30.8388 23.7272 30.1696 27.7907 28.2363 31.7111C27.8794 32.4408 27.6117 33.0418 27.6266 33.0418C27.6563 33.0418 27.9091 32.6984 28.2066 32.2691C30.5413 28.8924 31.7162 25.0865 31.5377 21.5237C31.4336 19.5778 31.0321 18.0612 30.1844 16.3728C29.3219 14.6272 28.3255 13.3967 25.4405 10.5208C23.1949 8.27443 21.6483 6.61469 20.0274 4.78325L19.4028 4.06784L19.6258 4.85479Z" fill="#151618"/>
<path d="M46.4425 39.924C43.0266 40.621 40.7044 43.5226 40.6894 47.0785C40.6894 47.7896 40.6595 47.8465 40.225 47.9888C39.4459 48.2448 40.0152 48.3728 42.4273 48.4724C45.8732 48.6146 47.9857 48.2306 49.7835 47.1211C50.2779 46.8224 51.5215 45.8695 52.5552 45.0018C54.6527 43.2666 55.7314 42.5269 57.4993 41.6309L58.6829 41.0335L57.2446 40.9339C56.4655 40.8912 55.0722 40.7063 54.1433 40.5499C53.2144 40.3934 51.7462 40.1374 50.8772 39.9952C49.0494 39.6822 47.731 39.6538 46.4425 39.924ZM51.3866 41.702C52.1207 41.8727 53.2594 42.0576 53.8886 42.1002L55.0572 42.1998L53.4242 43.4515C50.9372 45.3574 49.2891 46.2251 47.1767 46.7371C46.0979 47.0074 41.2737 47.7043 41.1688 47.6047C41.034 47.4767 41.4685 46.1539 41.9929 45.1156C42.9068 43.3092 44.6297 42.0149 46.8021 41.4886C47.9108 41.2184 49.6487 41.3037 51.3866 41.702Z" fill="#151618"/>
<path d="M13.0198 55.4852C12.8399 63.2125 13.2598 65.8266 15.2846 69.7189C16.3495 71.7585 18.0744 74.1427 19.3042 75.263C19.6042 75.5359 19.8442 75.7945 19.8442 75.8375C19.8442 75.895 16.1095 75.9094 11.565 75.8806C7.00542 75.8519 3.1208 75.8806 2.92582 75.9237C2.74584 75.9668 2.50586 76.1679 2.41587 76.3546C2.28088 76.6562 2.29588 76.7568 2.52086 77.0009C2.79083 77.2882 2.95582 77.2882 36.3726 77.2882C59.2454 77.2882 70.0443 77.2451 70.2543 77.1446C70.6443 76.9435 70.6443 76.1966 70.2543 75.9955C70.0593 75.9094 66.9696 75.8519 61.2402 75.8519H52.526L53.4409 74.8034C56.0507 71.859 57.7455 68.6273 58.8554 64.5052C59.1704 63.3705 59.2004 62.8821 59.2454 57.137L59.3204 51.004H36.2226H13.1248L13.0198 55.4852Z" fill="#151618"/>
<path d="M6.79482 79.2331C11.8628 81.5178 19.6748 83.3795 26.9619 84.0424C28.2514 84.1693 28.8362 84.268 28.6113 84.3244C28.2964 84.409 28.2814 84.4231 28.5363 84.4372C28.7012 84.4514 29.7208 84.5219 30.7854 84.6065C36.2733 84.9873 48.0286 84.7616 47.6988 84.268C47.6538 84.1975 47.6688 84.1693 47.7587 84.2116C47.8337 84.2539 48.1036 84.2398 48.3435 84.1693C48.7633 84.0565 48.7633 84.0565 48.1786 84.0282C47.8187 84.0141 48.5834 83.8449 50.0528 83.6051C54.626 82.8718 58.3896 81.9832 61.4784 80.9114C63.2477 80.2908 66.6813 78.8805 66.9212 78.6548C66.9962 78.5843 55.2858 78.5279 36.1833 78.542L5.29541 78.5561L6.79482 79.2331Z" fill="#151618"/>
<path d="M5.82715 100.218H5.625C5.61914 100.218 5.60156 100.221 5.57227 100.227C5.54883 100.232 5.52246 100.241 5.49316 100.253C5.46387 100.259 5.43457 100.265 5.40527 100.271C5.37598 100.276 5.3584 100.279 5.35254 100.279C5.05371 100.309 4.75195 100.326 4.44727 100.332C4.14258 100.344 3.83789 100.35 3.5332 100.35C3.46875 100.35 3.38672 100.347 3.28711 100.341C3.19336 100.341 3.10254 100.329 3.01465 100.306C2.92676 100.276 2.85059 100.235 2.78613 100.183C2.72168 100.13 2.68945 100.054 2.68945 99.9541C2.68945 99.8779 2.70703 99.8018 2.74219 99.7256C2.77734 99.6494 2.82715 99.5967 2.8916 99.5674C2.9502 99.5615 3.05273 99.5557 3.19922 99.5498C3.3457 99.5439 3.49805 99.5381 3.65625 99.5322C3.82031 99.5205 3.97559 99.5117 4.12207 99.5059C4.26855 99.4941 4.37109 99.4824 4.42969 99.4707C4.46484 99.4707 4.51172 99.4707 4.57031 99.4707C4.62891 99.4648 4.6875 99.4561 4.74609 99.4443C4.81055 99.4268 4.86621 99.4062 4.91309 99.3828C4.96582 99.3594 5.00684 99.3271 5.03613 99.2861C5.10645 99.1396 5.1416 98.9844 5.1416 98.8203V98.5479V97.8447C5.1416 97.8271 5.14453 97.7861 5.15039 97.7217C5.16211 97.6572 5.1709 97.5869 5.17676 97.5107C5.18848 97.4346 5.2002 97.3613 5.21191 97.291C5.22363 97.2207 5.22949 97.1768 5.22949 97.1592C5.25879 96.5498 5.27637 95.9375 5.28223 95.3223C5.28809 94.707 5.29102 94.0947 5.29102 93.4854C5.29102 93.2275 5.28809 92.9756 5.28223 92.7295C5.27637 92.4834 5.27344 92.2373 5.27344 91.9912C5.27344 91.9033 5.27344 91.7598 5.27344 91.5605C5.2793 91.3555 5.28223 91.1445 5.28223 90.9277C5.28223 90.7051 5.28223 90.4971 5.28223 90.3037C5.28809 90.1045 5.29102 89.9668 5.29102 89.8906C5.26172 89.7734 5.2207 89.6768 5.16797 89.6006C5.12109 89.5186 5.05664 89.4395 4.97461 89.3633C4.94531 89.3574 4.89258 89.3516 4.81641 89.3457C4.74609 89.334 4.66992 89.3252 4.58789 89.3193C4.51172 89.3076 4.43555 89.2988 4.35938 89.293C4.28906 89.2871 4.23926 89.2842 4.20996 89.2842C4.19824 89.2842 4.16895 89.29 4.12207 89.3018C4.08105 89.3076 4.03418 89.3164 3.98145 89.3281C3.93457 89.334 3.8877 89.3428 3.84082 89.3545C3.79395 89.3604 3.76465 89.3633 3.75293 89.3633C3.71777 89.3691 3.64453 89.3721 3.5332 89.3721C3.42773 89.3721 3.31348 89.3721 3.19043 89.3721C3.07324 89.3721 2.96191 89.3721 2.85645 89.3721C2.75098 89.3721 2.6748 89.3691 2.62793 89.3633C2.54004 89.3984 2.44336 89.4248 2.33789 89.4424C2.23242 89.4541 2.13281 89.4922 2.03906 89.5566C2.03906 89.5684 2.02148 89.5918 1.98633 89.627C1.95117 89.6621 1.92773 89.6855 1.91602 89.6973C1.86914 89.75 1.80469 89.8232 1.72266 89.917C1.64648 90.0049 1.57031 90.0957 1.49414 90.1895C1.41797 90.2832 1.34766 90.3652 1.2832 90.4355C1.22461 90.5059 1.19238 90.5439 1.18652 90.5498C1.14551 90.6025 1.10449 90.6758 1.06348 90.7695C1.02832 90.8574 0.987305 90.9453 0.94043 91.0332C0.893555 91.1152 0.837891 91.1885 0.773438 91.2529C0.708984 91.3174 0.629883 91.3496 0.536133 91.3496C0.46582 91.3496 0.416016 91.332 0.386719 91.2969C0.357422 91.2559 0.333984 91.209 0.316406 91.1562C0.316406 91.1387 0.316406 91.1123 0.316406 91.0771C0.316406 91.0361 0.313477 90.9951 0.307617 90.9541C0.307617 90.9072 0.307617 90.8633 0.307617 90.8223C0.307617 90.7754 0.307617 90.7432 0.307617 90.7256C0.307617 90.708 0.307617 90.6816 0.307617 90.6465C0.307617 90.6055 0.307617 90.5674 0.307617 90.5322C0.313477 90.4912 0.316406 90.4561 0.316406 90.4268C0.316406 90.3916 0.316406 90.3711 0.316406 90.3652C0.322266 90.3477 0.333984 90.3037 0.351562 90.2334C0.375 90.1572 0.398438 90.0781 0.421875 89.9961C0.445312 89.9141 0.46582 89.8379 0.483398 89.7676C0.506836 89.6973 0.524414 89.6533 0.536133 89.6357C0.536133 89.6182 0.541992 89.5801 0.553711 89.5215C0.56543 89.4629 0.577148 89.4014 0.588867 89.3369C0.606445 89.2666 0.621094 89.2051 0.632812 89.1523C0.644531 89.0938 0.65332 89.0557 0.65918 89.0381C0.65918 89.0264 0.667969 88.9941 0.685547 88.9414C0.708984 88.8887 0.732422 88.8301 0.755859 88.7656C0.779297 88.7012 0.799805 88.6426 0.817383 88.5898C0.84082 88.5371 0.852539 88.5049 0.852539 88.4932C0.870117 88.4463 0.887695 88.3936 0.905273 88.335C0.928711 88.2705 0.955078 88.2119 0.984375 88.1592C1.01953 88.1064 1.06055 88.0625 1.10742 88.0273C1.1543 87.9863 1.20996 87.9658 1.27441 87.9658C1.37402 87.9658 1.45312 87.9922 1.51172 88.0449C1.57617 88.0977 1.63477 88.1562 1.6875 88.2207C1.74023 88.2852 1.79297 88.3525 1.8457 88.4229C1.89844 88.4873 1.96289 88.5312 2.03906 88.5547C2.16211 88.5547 2.29102 88.5518 2.42578 88.5459C2.56055 88.54 2.69531 88.5371 2.83008 88.5371C3.08203 88.5371 3.33105 88.543 3.57715 88.5547C3.82324 88.5664 4.06641 88.5928 4.30664 88.6338C4.30664 88.6338 4.31836 88.6396 4.3418 88.6514C4.36523 88.6572 4.38867 88.666 4.41211 88.6777C4.44141 88.6836 4.46777 88.6895 4.49121 88.6953C4.52051 88.7012 4.53809 88.7041 4.54395 88.7041H4.8252C4.97754 88.7041 5.11523 88.6895 5.23828 88.6602C5.36719 88.6309 5.51074 88.6162 5.66895 88.6162C5.69238 88.6162 5.72461 88.6162 5.76562 88.6162C5.8125 88.6162 5.85938 88.6162 5.90625 88.6162C5.95312 88.6162 5.99414 88.6191 6.0293 88.625C6.06445 88.625 6.08789 88.6279 6.09961 88.6338C6.12305 88.6338 6.16992 88.6396 6.24023 88.6514C6.31641 88.6572 6.39844 88.666 6.48633 88.6777C6.57422 88.6836 6.65332 88.6895 6.72363 88.6953C6.7998 88.7012 6.84961 88.7041 6.87305 88.7041C6.91992 88.6865 6.97559 88.6719 7.04004 88.6602C7.11035 88.6484 7.20117 88.6396 7.3125 88.6338C7.42969 88.6279 7.57617 88.625 7.75195 88.625C7.92773 88.6191 8.14746 88.6162 8.41113 88.6162L10.002 88.6338C10.1016 88.6338 10.2041 88.6016 10.3096 88.5371C10.415 88.4668 10.5205 88.3877 10.626 88.2998C10.7314 88.2061 10.834 88.1152 10.9336 88.0273C11.0391 87.9395 11.1416 87.8779 11.2412 87.8428H11.3467C11.5166 87.8428 11.6367 87.9336 11.707 88.1152C11.7129 88.1855 11.7246 88.3174 11.7422 88.5107C11.7598 88.6982 11.7773 88.8975 11.7949 89.1084C11.8184 89.3193 11.8418 89.5186 11.8652 89.7061C11.8887 89.8936 11.9062 90.0254 11.918 90.1016C11.918 90.1133 11.9209 90.1338 11.9268 90.1631C11.9326 90.1924 11.9385 90.2275 11.9443 90.2686C11.9561 90.3037 11.9648 90.3389 11.9707 90.374C11.9766 90.4033 11.9795 90.4209 11.9795 90.4268V90.5586C11.9795 90.7109 11.9736 90.8486 11.9619 90.9717C11.9502 91.0947 11.9355 91.2354 11.918 91.3936C11.8945 91.4404 11.8652 91.4727 11.8301 91.4902C11.8008 91.502 11.7715 91.5078 11.7422 91.5078C11.7246 91.5078 11.707 91.499 11.6895 91.4814C11.6719 91.4756 11.6572 91.4668 11.6455 91.4551C11.5576 91.4141 11.4814 91.3555 11.417 91.2793C11.3584 91.2031 11.3057 91.1211 11.2588 91.0332C11.2178 90.9453 11.1797 90.8545 11.1445 90.7607C11.1094 90.6611 11.0742 90.5703 11.0391 90.4883C10.9395 90.2363 10.7754 90.0342 10.5469 89.8818C10.3242 89.7295 10.0928 89.6006 9.85254 89.4951C9.7002 89.4307 9.55078 89.3984 9.4043 89.3984C9.25781 89.3984 9.09961 89.3867 8.92969 89.3633C8.91797 89.3633 8.87402 89.3516 8.79785 89.3281C8.72754 89.2988 8.68066 89.2842 8.65723 89.2842H8.26172H7.81348C7.7666 89.2842 7.69922 89.2959 7.61133 89.3193C7.52344 89.3369 7.47656 89.3516 7.4707 89.3633C7.45312 89.3867 7.43262 89.4102 7.40918 89.4336C7.36816 89.4863 7.3418 89.5273 7.33008 89.5566C7.30664 89.5977 7.28027 89.6533 7.25098 89.7236C7.22168 89.7881 7.20703 89.8232 7.20703 89.8291C7.20117 89.8467 7.19531 89.8789 7.18945 89.9258C7.18359 89.9668 7.17773 90.0107 7.17188 90.0576C7.17188 90.1045 7.16895 90.1514 7.16309 90.1982C7.15723 90.2393 7.15137 90.2686 7.14551 90.2861C7.14551 90.3799 7.14844 90.541 7.1543 90.7695C7.16016 90.998 7.16309 91.2441 7.16309 91.5078C7.16309 91.7715 7.16016 92.0205 7.1543 92.2549C7.14844 92.4834 7.14551 92.6387 7.14551 92.7207C7.14551 93.0195 7.12207 93.3125 7.0752 93.5996C7.03418 93.8809 7.01367 94.1709 7.01367 94.4697C7.01367 94.792 7.02246 95.1143 7.04004 95.4365C7.06348 95.7529 7.0752 96.0781 7.0752 96.4121C7.0752 96.8164 7.06348 97.2236 7.04004 97.6338C7.02246 98.0439 7.01367 98.4541 7.01367 98.8643C7.01367 98.9873 7.04004 99.084 7.09277 99.1543C7.15137 99.2246 7.22461 99.2773 7.3125 99.3125C7.40039 99.3477 7.49707 99.3711 7.60254 99.3828C7.71387 99.3945 7.81934 99.4033 7.91895 99.4092C7.96582 99.415 8.03906 99.4209 8.13867 99.4268C8.24414 99.4326 8.35254 99.4385 8.46387 99.4443C8.58105 99.4502 8.68945 99.4561 8.78906 99.4619C8.88867 99.4678 8.95898 99.4707 9 99.4707C9.11133 99.5117 9.19336 99.5762 9.24609 99.6641C9.30469 99.752 9.33398 99.8486 9.33398 99.9541C9.33398 100.089 9.2959 100.194 9.21973 100.271C9.14355 100.341 9.04688 100.414 8.92969 100.49H8.91211C8.69531 100.49 8.49316 100.473 8.30566 100.438C8.12402 100.408 7.93066 100.379 7.72559 100.35C7.09863 100.262 6.46582 100.218 5.82715 100.218ZM12.6738 100.323C12.6738 100.3 12.6562 100.268 12.6211 100.227C12.5918 100.18 12.5742 100.142 12.5684 100.112V100.077V100.068C12.5801 100.045 12.6064 100.01 12.6475 99.9629C12.6885 99.916 12.7324 99.8691 12.7793 99.8223C12.832 99.7695 12.8789 99.7227 12.9199 99.6816C12.9668 99.6406 12.999 99.6113 13.0166 99.5938C13.0283 99.582 13.0664 99.5703 13.1309 99.5586C13.2012 99.541 13.251 99.5322 13.2803 99.5322H13.9043C13.9219 99.5322 13.9453 99.5293 13.9746 99.5234C14.0098 99.5117 14.042 99.5029 14.0713 99.4971C14.1064 99.4854 14.1357 99.4736 14.1592 99.4619C14.1885 99.4502 14.2031 99.4443 14.2031 99.4443C14.2852 99.4033 14.332 99.3389 14.3438 99.251C14.3613 99.1572 14.3701 99.0693 14.3701 98.9873V98.8467C14.3701 98.6416 14.3643 98.4482 14.3525 98.2666C14.3467 98.0791 14.3438 97.8828 14.3438 97.6777V97.6162C14.3438 97.5986 14.3467 97.5664 14.3525 97.5195C14.3584 97.4727 14.3643 97.4229 14.3701 97.3701C14.3818 97.3115 14.3936 97.2588 14.4053 97.2119C14.417 97.165 14.4258 97.1328 14.4316 97.1152V93.2832C14.4316 93.166 14.4111 93.0723 14.3701 93.002C14.3291 92.9316 14.2764 92.8789 14.2119 92.8438C14.1475 92.8027 14.0713 92.7764 13.9834 92.7646C13.9014 92.7529 13.8135 92.7471 13.7197 92.7471H13.3594C13.1953 92.7471 13.0576 92.7266 12.9463 92.6855C12.835 92.6445 12.7793 92.5449 12.7793 92.3867C12.7793 92.334 12.7793 92.2871 12.7793 92.2461C12.7852 92.2051 12.7998 92.1494 12.8232 92.0791C13.1045 92.0908 13.3799 92.082 13.6494 92.0527C13.9189 92.0234 14.1914 92.0088 14.4668 92.0088H14.6953C14.7188 92.0146 14.7656 92.0205 14.8359 92.0264C14.9121 92.0322 14.9883 92.0381 15.0645 92.0439C15.1465 92.0498 15.2227 92.0557 15.293 92.0615C15.3633 92.0674 15.4131 92.0732 15.4424 92.0791H19.5732C19.749 92.0791 19.875 92.126 19.9512 92.2197C20.0273 92.3076 20.083 92.4189 20.1182 92.5537V93.0547V93.5732C20.1182 93.6084 20.1123 93.6729 20.1006 93.7666C20.0889 93.8545 20.0742 93.9512 20.0566 94.0566C20.0449 94.1562 20.0303 94.2559 20.0127 94.3555C20.001 94.4492 19.9922 94.5166 19.9863 94.5576C19.9746 94.5752 19.9541 94.6016 19.9248 94.6367C19.8955 94.666 19.875 94.6807 19.8633 94.6807C19.8633 94.6924 19.8574 94.6982 19.8457 94.6982H19.8369H19.8105C19.793 94.6982 19.7842 94.6924 19.7842 94.6807C19.6846 94.6104 19.6084 94.5312 19.5557 94.4434C19.5029 94.3496 19.459 94.2529 19.4238 94.1533C19.3887 94.0537 19.3564 93.9541 19.3271 93.8545C19.2979 93.7549 19.2539 93.6611 19.1953 93.5732C19.1836 93.5498 19.1455 93.5117 19.0811 93.459C19.0225 93.4004 18.9902 93.3682 18.9844 93.3623C18.9727 93.3506 18.9463 93.3184 18.9053 93.2656C18.8701 93.2129 18.8291 93.1572 18.7822 93.0986C18.7412 93.0342 18.7002 92.9756 18.6592 92.9229C18.624 92.8701 18.6006 92.8379 18.5889 92.8262C18.5654 92.7734 18.5391 92.7471 18.5098 92.7471C18.5039 92.7471 18.4834 92.7441 18.4482 92.7383C18.4189 92.7324 18.3838 92.7266 18.3428 92.7207C18.3076 92.709 18.2725 92.7002 18.2373 92.6943C18.208 92.6885 18.1934 92.6826 18.1934 92.6768C18.1758 92.6768 18.1436 92.6709 18.0967 92.6592C18.0498 92.6475 17.9971 92.6357 17.9385 92.624C17.8857 92.6123 17.8359 92.6006 17.7891 92.5889C17.7422 92.5713 17.7129 92.5596 17.7012 92.5537H17.6572C17.6338 92.5537 17.6016 92.5625 17.5605 92.5801C17.5195 92.5918 17.4902 92.5977 17.4727 92.5977H17.4463C17.4287 92.5918 17.3789 92.5859 17.2969 92.5801C17.2207 92.5742 17.1357 92.5713 17.042 92.5713C16.9482 92.5654 16.8604 92.5625 16.7783 92.5625C16.7021 92.5566 16.6553 92.5537 16.6377 92.5537H16.6113C16.5059 92.5537 16.418 92.5742 16.3477 92.6152C16.2773 92.6562 16.2188 92.709 16.1719 92.7734C16.1309 92.8379 16.0928 92.9111 16.0576 92.9932C16.0283 93.0693 15.999 93.1455 15.9697 93.2217C15.9639 93.2861 15.9521 93.3916 15.9346 93.5381C15.9229 93.6846 15.9082 93.8398 15.8906 94.0039C15.8789 94.168 15.8672 94.3232 15.8555 94.4697C15.8438 94.6162 15.8379 94.7188 15.8379 94.7773V94.8477V94.8916C15.8379 94.9209 15.8408 94.9707 15.8467 95.041C15.8525 95.1113 15.8584 95.1875 15.8643 95.2695C15.8701 95.3457 15.876 95.4219 15.8818 95.498C15.8936 95.5684 15.9023 95.6152 15.9082 95.6387C15.9492 95.6914 15.9961 95.7441 16.0488 95.7969C16.1074 95.8496 16.1689 95.8848 16.2334 95.9023H16.7168C16.916 95.9023 17.0889 95.8994 17.2354 95.8936C17.3877 95.8877 17.5693 95.8701 17.7803 95.8408C17.7861 95.8291 17.7949 95.8086 17.8066 95.7793C17.8184 95.75 17.833 95.7207 17.8506 95.6914C17.8682 95.6621 17.8828 95.6357 17.8945 95.6123C17.9062 95.5889 17.915 95.5742 17.9209 95.5684C17.9443 95.5273 17.9736 95.4688 18.0088 95.3926C18.0439 95.3105 18.0791 95.2314 18.1143 95.1553C18.1494 95.0732 18.1787 95.0029 18.2021 94.9443C18.2314 94.8857 18.249 94.8535 18.2549 94.8477C18.2666 94.8242 18.2783 94.7744 18.29 94.6982C18.3018 94.6162 18.3135 94.5693 18.3252 94.5576C18.3721 94.5049 18.4336 94.4697 18.5098 94.4521C18.5859 94.4346 18.6621 94.4258 18.7383 94.4258C18.8203 94.4258 18.8701 94.458 18.8877 94.5225C18.9111 94.5811 18.9229 94.6484 18.9229 94.7246V94.9443V95.0498C18.9229 95.1025 18.917 95.1553 18.9053 95.208C18.8936 95.2549 18.873 95.3018 18.8438 95.3486C18.8379 95.4014 18.832 95.4893 18.8262 95.6123C18.8203 95.7354 18.8145 95.8643 18.8086 95.999C18.8027 96.1338 18.7969 96.2627 18.791 96.3857C18.7852 96.5029 18.7822 96.585 18.7822 96.6318V96.8604V97.3877C18.7764 97.3994 18.7705 97.4258 18.7646 97.4668C18.7588 97.5078 18.7529 97.5547 18.7471 97.6074C18.7471 97.6543 18.7441 97.7012 18.7383 97.748C18.7324 97.7949 18.7266 97.8271 18.7207 97.8447C18.6562 97.8916 18.5977 97.9268 18.5449 97.9502C18.498 97.9736 18.4395 97.9854 18.3691 97.9854C18.3223 97.9854 18.2783 97.9678 18.2373 97.9326C18.1963 97.8916 18.1582 97.8418 18.123 97.7832C18.0879 97.7246 18.0586 97.666 18.0352 97.6074C18.0117 97.543 17.9971 97.4844 17.9912 97.4316C17.9854 97.4141 17.9766 97.376 17.9648 97.3174C17.959 97.2529 17.9531 97.1855 17.9473 97.1152C17.9414 97.0391 17.9355 96.9688 17.9297 96.9043C17.9238 96.8398 17.9209 96.793 17.9209 96.7637C17.9033 96.7402 17.8711 96.7197 17.8242 96.7021C17.7832 96.6787 17.7422 96.6553 17.7012 96.6318C17.666 96.6201 17.6104 96.6055 17.5342 96.5879C17.458 96.5703 17.376 96.5557 17.2881 96.5439C17.2061 96.5264 17.127 96.5146 17.0508 96.5088C16.9805 96.4971 16.9336 96.4912 16.9102 96.4912C16.8926 96.4912 16.8604 96.4912 16.8135 96.4912C16.7725 96.4854 16.7227 96.4824 16.6641 96.4824C16.6113 96.4824 16.5586 96.4824 16.5059 96.4824C16.4531 96.4766 16.4121 96.4736 16.3828 96.4736C16.3652 96.4736 16.3359 96.4766 16.2949 96.4824C16.2598 96.4824 16.2217 96.4824 16.1807 96.4824C16.1455 96.4824 16.1133 96.4854 16.084 96.4912C16.0547 96.4912 16.0371 96.4912 16.0312 96.4912L15.9082 96.6318V96.9307C15.9082 97.2764 15.8965 97.6104 15.873 97.9326C15.8496 98.249 15.8379 98.5801 15.8379 98.9258C15.8379 99.1016 15.8525 99.2305 15.8818 99.3125C15.9111 99.3945 15.958 99.4531 16.0225 99.4883C16.0869 99.5234 16.1689 99.5498 16.2686 99.5674C16.3682 99.585 16.4912 99.6143 16.6377 99.6553C16.6494 99.6553 16.6699 99.6641 16.6992 99.6816C16.7285 99.6992 16.749 99.7168 16.7607 99.7344H17.4463H18.0967C18.1084 99.7344 18.1348 99.7314 18.1758 99.7256C18.2168 99.7139 18.2607 99.7051 18.3076 99.6992C18.3545 99.6875 18.3955 99.6787 18.4307 99.6729C18.4717 99.6611 18.498 99.6553 18.5098 99.6553H18.9316H19.0986C19.1104 99.6553 19.1309 99.6465 19.1602 99.6289C19.1895 99.6055 19.2188 99.582 19.248 99.5586C19.2832 99.5293 19.3125 99.5029 19.3359 99.4795C19.3594 99.4561 19.374 99.4443 19.3799 99.4443C19.4209 99.4268 19.4531 99.418 19.4766 99.418C19.5059 99.4121 19.5293 99.4092 19.5469 99.4092C19.5645 99.4033 19.582 99.3945 19.5996 99.3828C19.6172 99.3652 19.6348 99.3389 19.6523 99.3037C19.7168 99.21 19.7637 99.1133 19.793 99.0137C19.8223 98.9141 19.8604 98.8145 19.9072 98.7148C19.9307 98.6973 19.96 98.6621 19.9951 98.6094C20.0303 98.5508 20.0508 98.5127 20.0566 98.4951C20.0625 98.4951 20.0801 98.4863 20.1094 98.4688C20.1387 98.4453 20.168 98.4219 20.1973 98.3984C20.2266 98.3691 20.2529 98.3428 20.2764 98.3193C20.2998 98.29 20.3145 98.2695 20.3203 98.2578C20.3262 98.2402 20.3379 98.2168 20.3555 98.1875C20.3789 98.1523 20.4023 98.1172 20.4258 98.082C20.4492 98.041 20.4697 98.0059 20.4873 97.9766C20.5107 97.9414 20.5254 97.918 20.5312 97.9062C20.5312 97.9004 20.54 97.8887 20.5576 97.8711C20.5693 97.8652 20.5811 97.8564 20.5928 97.8447C20.5928 97.833 20.5957 97.8271 20.6016 97.8271H20.6191C20.707 97.8271 20.7598 97.8623 20.7773 97.9326C20.7949 97.9971 20.8037 98.0645 20.8037 98.1348V98.3193C20.8037 98.3486 20.8066 98.4189 20.8125 98.5303C20.8184 98.6416 20.8213 98.7617 20.8213 98.8906C20.8271 99.0137 20.833 99.1309 20.8389 99.2422C20.8447 99.3535 20.8477 99.4209 20.8477 99.4443V99.4707C20.8477 99.5469 20.833 99.6348 20.8037 99.7344C20.7744 99.8281 20.7334 99.9189 20.6807 100.007C20.6279 100.095 20.5635 100.168 20.4873 100.227C20.417 100.285 20.3408 100.317 20.2588 100.323C20.2178 100.317 20.1416 100.312 20.0303 100.306C19.9248 100.3 19.8105 100.294 19.6875 100.288C19.5645 100.282 19.4473 100.276 19.3359 100.271C19.2246 100.265 19.1455 100.256 19.0986 100.244H18.9316H18.7822C18.7529 100.256 18.6855 100.268 18.5801 100.279C18.4746 100.285 18.3604 100.291 18.2373 100.297C18.1201 100.303 18.0059 100.309 17.8945 100.314C17.7891 100.32 17.7246 100.323 17.7012 100.323H14.3701C14.3525 100.329 14.3232 100.335 14.2822 100.341C14.2471 100.347 14.2061 100.35 14.1592 100.35C14.1182 100.355 14.0771 100.358 14.0361 100.358C13.9951 100.364 13.9658 100.367 13.9482 100.367C13.9482 100.379 13.9277 100.385 13.8867 100.385C13.8457 100.385 13.8076 100.382 13.7725 100.376C13.7373 100.37 13.7139 100.367 13.7021 100.367C13.6787 100.385 13.6318 100.405 13.5615 100.429C13.4912 100.452 13.4414 100.464 13.4121 100.464C13.3828 100.464 13.333 100.458 13.2627 100.446C13.1982 100.435 13.1279 100.42 13.0518 100.402C12.9756 100.391 12.9023 100.376 12.832 100.358C12.7617 100.347 12.709 100.335 12.6738 100.323ZM24.293 96.8428C24.293 96.9248 24.3311 96.9834 24.4072 97.0186C24.4834 97.0537 24.5537 97.0713 24.6182 97.0713H25.084C25.1484 97.0713 25.2129 97.0742 25.2773 97.0801C25.3418 97.0859 25.4062 97.0889 25.4707 97.0889C25.623 97.0889 25.7549 97.0654 25.8662 97.0186C25.9775 96.9658 26.0332 96.8516 26.0332 96.6758V96.5264C25.9805 96.2568 25.9014 95.9902 25.7959 95.7266C25.6904 95.457 25.5908 95.1963 25.4971 94.9443C25.4854 94.9033 25.4678 94.8594 25.4443 94.8125C25.4268 94.7598 25.4033 94.7129 25.374 94.6719C25.3447 94.625 25.3125 94.5869 25.2773 94.5576C25.2422 94.5283 25.2041 94.5137 25.1631 94.5137C25.0869 94.5137 25.0254 94.5459 24.9785 94.6104C24.9375 94.6748 24.9023 94.751 24.873 94.8389C24.8496 94.9268 24.8291 95.0176 24.8115 95.1113C24.7939 95.1992 24.7734 95.2695 24.75 95.3223C24.7324 95.375 24.7002 95.4688 24.6533 95.6035C24.6123 95.7383 24.5684 95.8818 24.5215 96.0342C24.4746 96.1807 24.4277 96.3213 24.3809 96.4561C24.3398 96.5908 24.3105 96.6846 24.293 96.7373V96.8428ZM22.2451 100.279H22.2012C22.1895 100.279 22.1602 100.285 22.1133 100.297C22.0664 100.303 22.0137 100.312 21.9551 100.323C21.8965 100.329 21.8408 100.335 21.7881 100.341C21.7412 100.347 21.7119 100.35 21.7002 100.35H21.6475C21.6123 100.35 21.583 100.335 21.5596 100.306C21.5361 100.276 21.5186 100.244 21.5068 100.209C21.4951 100.168 21.4893 100.13 21.4893 100.095C21.4834 100.054 21.4805 100.027 21.4805 100.016V99.9893C21.4805 99.8838 21.5156 99.8135 21.5859 99.7783C21.6621 99.7432 21.7354 99.7109 21.8057 99.6816C21.8174 99.6816 21.8467 99.6729 21.8936 99.6553C21.9404 99.6318 21.9902 99.6084 22.043 99.585C22.1016 99.5615 22.1543 99.541 22.2012 99.5234C22.248 99.5 22.2773 99.4824 22.2891 99.4707C22.2949 99.4648 22.3125 99.4502 22.3418 99.4268C22.3711 99.3975 22.4033 99.3652 22.4385 99.3301C22.4736 99.2949 22.5059 99.2598 22.5352 99.2246C22.5703 99.1895 22.5996 99.1602 22.623 99.1367C22.6289 99.125 22.6377 99.1104 22.6494 99.0928C22.6729 99.0576 22.6846 99.0312 22.6846 99.0137C22.6846 99.002 22.6904 98.9668 22.7021 98.9082C22.7197 98.8496 22.7344 98.8145 22.7461 98.8027C22.9043 98.4863 23.0625 98.167 23.2207 97.8447C23.3789 97.5166 23.5283 97.1885 23.6689 96.8604C23.6865 96.8428 23.71 96.793 23.7393 96.7109C23.7744 96.623 23.7979 96.5615 23.8096 96.5264C23.8154 96.5146 23.8301 96.4795 23.8535 96.4209C23.877 96.3564 23.9004 96.292 23.9238 96.2275C23.9473 96.1572 23.9678 96.0928 23.9854 96.0342C24.0088 95.9756 24.0205 95.9404 24.0205 95.9287C24.0264 95.9111 24.0439 95.8701 24.0732 95.8057C24.1084 95.7412 24.1436 95.6709 24.1787 95.5947C24.2197 95.5186 24.2549 95.4453 24.2842 95.375C24.3193 95.3047 24.3428 95.2607 24.3545 95.2432C24.4014 95.1377 24.4453 95.0439 24.4863 94.9619C24.5332 94.874 24.5771 94.7715 24.6182 94.6543C24.6416 94.6074 24.6709 94.5547 24.7061 94.4961C24.7471 94.4375 24.7852 94.376 24.8203 94.3115C24.8555 94.2412 24.8848 94.1738 24.9082 94.1094C24.9375 94.0449 24.9521 93.9834 24.9521 93.9248V93.8018C24.9521 93.7783 24.9434 93.7402 24.9258 93.6875C24.9141 93.6289 24.9082 93.5967 24.9082 93.5908C24.9082 93.5498 24.9316 93.4971 24.9785 93.4326C25.0254 93.3682 25.0605 93.3271 25.084 93.3096C25.0957 93.3037 25.1221 93.292 25.1631 93.2744C25.21 93.2568 25.2568 93.2363 25.3037 93.2129C25.3506 93.1895 25.3916 93.1689 25.4268 93.1514C25.4678 93.1338 25.4912 93.1221 25.4971 93.1162C25.5088 93.1045 25.5322 93.0811 25.5674 93.0459C25.6025 93.0107 25.6406 92.9727 25.6816 92.9316C25.7285 92.8848 25.7695 92.8408 25.8047 92.7998C25.8457 92.7529 25.875 92.7207 25.8926 92.7031C25.8984 92.6973 25.9102 92.6797 25.9277 92.6504C25.9453 92.6152 25.9658 92.583 25.9893 92.5537C26.0127 92.5186 26.0391 92.4893 26.0684 92.4658C26.0977 92.4365 26.1299 92.4248 26.165 92.4307C26.2236 92.4482 26.2734 92.501 26.3145 92.5889C26.3613 92.6768 26.3994 92.7734 26.4287 92.8789C26.4639 92.9785 26.4932 93.0781 26.5166 93.1777C26.54 93.2715 26.5605 93.3359 26.5781 93.3711C26.584 93.4004 26.5928 93.4414 26.6045 93.4941C26.6221 93.5469 26.6367 93.5996 26.6484 93.6523C26.666 93.7051 26.6807 93.752 26.6924 93.793C26.7041 93.834 26.71 93.8574 26.71 93.8633C26.7158 93.8809 26.7246 93.9219 26.7363 93.9863C26.748 94.0508 26.7598 94.1211 26.7715 94.1973C26.7891 94.2734 26.8037 94.3438 26.8154 94.4082C26.8271 94.4668 26.833 94.502 26.833 94.5137C26.8389 94.5312 26.8535 94.5869 26.877 94.6807C26.9062 94.7744 26.9385 94.8828 26.9736 95.0059C27.0088 95.1289 27.0439 95.252 27.0791 95.375C27.1143 95.4922 27.1436 95.5859 27.167 95.6562C27.2139 95.8145 27.2725 95.9727 27.3428 96.1309C27.4131 96.2832 27.4658 96.4385 27.501 96.5967C27.5303 96.7314 27.5479 96.8398 27.5537 96.9219C27.5654 96.998 27.5947 97.0918 27.6416 97.2031C27.6475 97.2148 27.6592 97.2412 27.6768 97.2822C27.7002 97.3174 27.7236 97.3584 27.7471 97.4053C27.7705 97.4463 27.791 97.4873 27.8086 97.5283C27.8262 97.5693 27.8379 97.5986 27.8438 97.6162C27.8438 97.6279 27.8467 97.6484 27.8525 97.6777C27.8584 97.707 27.8643 97.7422 27.8701 97.7832C27.8818 97.8184 27.8906 97.8535 27.8965 97.8887C27.9023 97.918 27.9082 97.9385 27.9141 97.9502C27.9141 97.9561 27.9199 97.9766 27.9316 98.0117C27.9434 98.041 27.958 98.0762 27.9756 98.1172C27.9932 98.1523 28.0078 98.1875 28.0195 98.2227C28.0371 98.252 28.0488 98.2666 28.0547 98.2666C28.084 98.4189 28.1221 98.583 28.1689 98.7588C28.2158 98.9346 28.2891 99.0898 28.3887 99.2246C28.4355 99.2949 28.5205 99.3535 28.6436 99.4004C28.7725 99.4473 28.9014 99.4941 29.0303 99.541C29.165 99.5879 29.2822 99.6406 29.3818 99.6992C29.4814 99.7578 29.5312 99.834 29.5312 99.9277C29.5312 100.027 29.5049 100.106 29.4521 100.165C29.4053 100.218 29.3438 100.259 29.2676 100.288C29.1914 100.317 29.1064 100.335 29.0127 100.341C28.9189 100.347 28.8311 100.35 28.749 100.35H28.5732H28.3887C28.2949 100.35 28.1309 100.347 27.8965 100.341C27.6621 100.335 27.4102 100.329 27.1406 100.323C26.877 100.312 26.625 100.303 26.3848 100.297C26.1504 100.285 25.9863 100.279 25.8926 100.279C25.8281 100.256 25.79 100.229 25.7783 100.2C25.7666 100.165 25.7607 100.115 25.7607 100.051V99.9893C25.7607 99.9775 25.7637 99.9658 25.7695 99.9541C25.8223 99.8428 25.8955 99.7695 25.9893 99.7344C26.083 99.6934 26.1797 99.6611 26.2793 99.6377C26.3848 99.6143 26.4873 99.5879 26.5869 99.5586C26.6865 99.5234 26.7686 99.4531 26.833 99.3477L26.8506 99.2861L26.833 99.2246C26.8271 99.1719 26.8125 99.0986 26.7891 99.0049C26.7715 98.9111 26.751 98.8174 26.7275 98.7236C26.71 98.6299 26.6924 98.5479 26.6748 98.4775C26.6572 98.4014 26.6455 98.3574 26.6396 98.3457C26.6279 98.334 26.6104 98.3047 26.5869 98.2578C26.5635 98.2109 26.5371 98.1582 26.5078 98.0996C26.4844 98.041 26.458 97.9854 26.4287 97.9326C26.4053 97.874 26.3848 97.8301 26.3672 97.8008C26.3027 97.7012 26.2119 97.6426 26.0947 97.625C25.9834 97.6016 25.8721 97.5898 25.7607 97.5898H25.585C25.374 97.5898 25.1748 97.6045 24.9873 97.6338C24.8057 97.6631 24.6123 97.6777 24.4072 97.6777C24.3662 97.6777 24.3252 97.6748 24.2842 97.6689C24.2432 97.6631 24.2021 97.6602 24.1611 97.6602C24.1201 97.7012 24.0996 97.7334 24.0996 97.7568C24.0879 97.7627 24.0732 97.7861 24.0557 97.8271C24.0439 97.8623 24.0293 97.9033 24.0117 97.9502C24 97.9912 23.9854 98.0322 23.9678 98.0732C23.9561 98.1084 23.9502 98.1289 23.9502 98.1348C23.9502 98.1465 23.9297 98.1816 23.8887 98.2402C23.8535 98.2988 23.8271 98.334 23.8096 98.3457C23.7393 98.4922 23.6982 98.6445 23.6865 98.8027C23.6748 98.9551 23.6689 99.1133 23.6689 99.2773C23.6689 99.3711 23.6982 99.4414 23.7568 99.4883C23.8154 99.5293 23.8887 99.5615 23.9766 99.585C24.0645 99.6084 24.1582 99.6289 24.2578 99.6465C24.3574 99.6582 24.4512 99.6787 24.5391 99.708C24.627 99.7314 24.7002 99.7695 24.7588 99.8223C24.8174 99.875 24.8467 99.9512 24.8467 100.051C24.8467 100.244 24.7559 100.364 24.5742 100.411C24.5508 100.411 24.5068 100.408 24.4424 100.402C24.3838 100.396 24.3223 100.391 24.2578 100.385C24.1934 100.379 24.1318 100.373 24.0732 100.367C24.0146 100.361 23.9736 100.355 23.9502 100.35H23.3262H23.0801C23.0625 100.35 23.0156 100.347 22.9395 100.341C22.8633 100.335 22.7783 100.329 22.6846 100.323C22.5908 100.312 22.5059 100.303 22.4297 100.297C22.3535 100.285 22.3066 100.279 22.2891 100.279H22.2451ZM31.1924 100.323C31.1807 100.323 31.1455 100.329 31.0869 100.341C31.0342 100.358 31.0049 100.367 30.999 100.367H30.9639C30.8877 100.367 30.8115 100.364 30.7354 100.358C30.665 100.353 30.6006 100.338 30.542 100.314C30.4893 100.291 30.4453 100.256 30.4102 100.209C30.375 100.162 30.3574 100.098 30.3574 100.016V99.8838C30.3633 99.8252 30.4336 99.7842 30.5684 99.7607C30.709 99.7314 30.8643 99.7139 31.0342 99.708C31.2041 99.6963 31.3652 99.6875 31.5176 99.6816C31.6699 99.6699 31.7607 99.6465 31.79 99.6113C31.7959 99.582 31.8018 99.5557 31.8076 99.5322C31.8135 99.5088 31.8193 99.4883 31.8252 99.4707C31.8311 99.4531 31.834 99.4385 31.834 99.4268C31.834 99.4033 31.8369 99.3682 31.8428 99.3213C31.8545 99.2686 31.8633 99.2158 31.8691 99.1631C31.8809 99.1045 31.8896 99.0518 31.8955 99.0049C31.9014 98.958 31.9043 98.9258 31.9043 98.9082C31.9043 98.8613 31.9072 98.7646 31.9131 98.6182C31.9189 98.4658 31.9248 98.3018 31.9307 98.126C31.9365 97.9502 31.9424 97.7803 31.9482 97.6162C31.9541 97.4521 31.957 97.335 31.957 97.2646C31.957 97.2354 31.957 97.1826 31.957 97.1064C31.9629 97.0244 31.9658 96.9365 31.9658 96.8428C31.9658 96.749 31.9629 96.6641 31.957 96.5879C31.957 96.5117 31.957 96.4531 31.957 96.4121L32.001 96.2979C32.001 96.292 32.0039 96.2334 32.0098 96.1221C32.0156 96.0049 32.0215 95.8672 32.0273 95.709C32.0391 95.5508 32.0479 95.3896 32.0537 95.2256C32.0654 95.0615 32.0713 94.9268 32.0713 94.8213V94.2236V93.5996C32.0713 93.5762 32.0654 93.541 32.0537 93.4941C32.0479 93.4473 32.042 93.4004 32.0361 93.3535C32.0303 93.3008 32.0215 93.2568 32.0098 93.2217C32.0039 93.1807 32.001 93.1543 32.001 93.1426C31.9717 93.0547 31.9131 92.9932 31.8252 92.958C31.7432 92.917 31.6436 92.8877 31.5264 92.8701C31.415 92.8525 31.2949 92.8438 31.166 92.8438C31.043 92.8379 30.9287 92.8262 30.8232 92.8086C30.7178 92.791 30.6299 92.7617 30.5596 92.7207C30.4951 92.6738 30.4629 92.6035 30.4629 92.5098C30.4629 92.457 30.4805 92.4102 30.5156 92.3691C30.5508 92.3223 30.5918 92.2812 30.6387 92.2461C30.6855 92.2109 30.7354 92.1846 30.7881 92.167C30.8467 92.1436 30.8965 92.1318 30.9375 92.1318C31.0195 92.1318 31.1191 92.1436 31.2363 92.167C31.3535 92.1904 31.4443 92.1963 31.5088 92.1846C31.5264 92.1846 31.5615 92.1816 31.6143 92.1758C31.667 92.1699 31.7227 92.1641 31.7812 92.1582C31.8457 92.1523 31.9043 92.1465 31.957 92.1406C32.0156 92.1348 32.0537 92.1318 32.0713 92.1318C32.1006 92.1318 32.168 92.1348 32.2734 92.1406C32.3789 92.1465 32.4902 92.1523 32.6074 92.1582C32.7305 92.1641 32.8447 92.1729 32.9502 92.1846C33.0557 92.1904 33.123 92.1963 33.1523 92.2021H33.2578H33.3369C33.3486 92.1963 33.375 92.1904 33.416 92.1846C33.457 92.1729 33.498 92.1641 33.5391 92.1582C33.5859 92.1523 33.627 92.1465 33.6621 92.1406C33.7031 92.1348 33.7266 92.1318 33.7324 92.1318H34.1719C34.1777 92.1318 34.1982 92.1289 34.2334 92.123C34.2686 92.1172 34.3037 92.1113 34.3389 92.1055C34.3799 92.0996 34.415 92.0938 34.4443 92.0879C34.4795 92.082 34.5 92.0791 34.5059 92.0791H34.541C34.5527 92.0791 34.5615 92.0791 34.5674 92.0791C34.5791 92.0732 34.5908 92.0703 34.6025 92.0703C34.6729 92.0703 34.7432 92.0732 34.8135 92.0791C34.8838 92.085 34.9482 92.0996 35.0068 92.123C35.0654 92.1406 35.1123 92.1729 35.1475 92.2197C35.1885 92.2666 35.209 92.3311 35.209 92.4131C35.209 92.4307 35.2031 92.457 35.1914 92.4922C35.1797 92.5215 35.1738 92.542 35.1738 92.5537C35.127 92.583 35.0537 92.627 34.9541 92.6855C34.8545 92.7383 34.7725 92.7705 34.708 92.7822C34.6846 92.7822 34.6318 92.7881 34.5498 92.7998C34.4736 92.8057 34.3916 92.8145 34.3037 92.8262C34.2158 92.832 34.1338 92.8408 34.0576 92.8525C33.9814 92.8584 33.9346 92.8613 33.917 92.8613C33.8701 92.8672 33.8291 92.8877 33.7939 92.9229C33.7646 92.9521 33.7441 92.9902 33.7324 93.0371C33.6797 93.3008 33.6445 93.5615 33.627 93.8193C33.6152 94.0771 33.6094 94.3408 33.6094 94.6104V95.4541V95.7354C33.6094 95.7412 33.6035 95.7764 33.5918 95.8408C33.5859 95.8994 33.5771 95.9668 33.5654 96.043C33.5596 96.1133 33.5508 96.1807 33.5391 96.2451C33.5332 96.3096 33.5303 96.3506 33.5303 96.3682V97.7041V98.2139C33.5303 98.2314 33.5273 98.2695 33.5215 98.3281C33.5156 98.3867 33.5098 98.4482 33.5039 98.5127C33.498 98.5771 33.4922 98.6357 33.4863 98.6885C33.4805 98.7412 33.4775 98.7734 33.4775 98.7852V98.8291V98.9082C33.4775 98.9199 33.4863 98.9521 33.5039 99.0049C33.5215 99.0518 33.5303 99.0811 33.5303 99.0928C33.5303 99.1045 33.5215 99.125 33.5039 99.1543C33.4863 99.1777 33.4775 99.1982 33.4775 99.2158C33.4717 99.2334 33.4688 99.251 33.4688 99.2686C33.4629 99.2803 33.46 99.2949 33.46 99.3125C33.46 99.3242 33.46 99.3359 33.46 99.3477C33.46 99.459 33.4922 99.5645 33.5566 99.6641C33.627 99.7578 33.7148 99.8047 33.8203 99.8047H33.873C34.043 99.7754 34.2188 99.749 34.4004 99.7256C34.5879 99.6963 34.7666 99.6816 34.9365 99.6816H36.4219C36.4453 99.6816 36.4834 99.6787 36.5361 99.6729C36.5947 99.667 36.6504 99.6611 36.7031 99.6553C36.7559 99.6494 36.8027 99.6436 36.8438 99.6377C36.8848 99.626 36.9082 99.6172 36.9141 99.6113C36.9258 99.6055 36.9492 99.5879 36.9844 99.5586C37.0195 99.5234 37.0576 99.4854 37.0986 99.4443C37.1455 99.3975 37.1865 99.3535 37.2217 99.3125C37.2627 99.2715 37.292 99.2393 37.3096 99.2158C37.3096 99.21 37.3154 99.1953 37.3271 99.1719C37.3389 99.1426 37.3506 99.1162 37.3623 99.0928C37.374 99.0635 37.3857 99.0371 37.3975 99.0137C37.4092 98.9902 37.418 98.9756 37.4238 98.9697C37.4238 98.9639 37.4326 98.9551 37.4502 98.9434C37.4736 98.9258 37.4971 98.9082 37.5205 98.8906C37.5439 98.873 37.5645 98.8584 37.582 98.8467C37.6055 98.835 37.6201 98.8291 37.626 98.8291L37.6699 98.7852C37.6816 98.7793 37.7051 98.7471 37.7402 98.6885C37.7754 98.624 37.793 98.5859 37.793 98.5742C37.8164 98.5508 37.8457 98.5156 37.8809 98.4688C37.9219 98.416 37.9629 98.3633 38.0039 98.3105C38.0508 98.252 38.0918 98.1992 38.127 98.1523C38.1621 98.0996 38.1885 98.0645 38.2061 98.0469C38.2295 98.0176 38.2441 98 38.25 97.9941C38.2617 97.9883 38.291 97.9854 38.3379 97.9854C38.4316 97.9854 38.5049 98.0234 38.5576 98.0996C38.6104 98.1699 38.6484 98.2549 38.6719 98.3545C38.6953 98.4541 38.707 98.5566 38.707 98.6621C38.7129 98.7617 38.7158 98.8438 38.7158 98.9082C38.7158 98.9375 38.7158 98.9727 38.7158 99.0137C38.7158 99.0547 38.7158 99.0957 38.7158 99.1367C38.7158 99.1777 38.7129 99.2129 38.707 99.2422C38.707 99.2715 38.707 99.2861 38.707 99.2861C38.707 99.2979 38.6982 99.3301 38.6807 99.3828C38.6631 99.4297 38.6543 99.459 38.6543 99.4707C38.6426 99.6055 38.6367 99.7227 38.6367 99.8223C38.6367 99.916 38.6221 99.998 38.5928 100.068C38.5693 100.139 38.5225 100.197 38.4521 100.244C38.3877 100.291 38.2793 100.332 38.127 100.367C38.0742 100.373 37.9775 100.376 37.8369 100.376C37.6963 100.382 37.5439 100.385 37.3799 100.385C37.2217 100.385 37.0693 100.385 36.9229 100.385C36.7822 100.385 36.6826 100.385 36.624 100.385C36.5186 100.385 36.3838 100.385 36.2197 100.385C36.0557 100.385 35.8945 100.385 35.7363 100.385C35.584 100.385 35.4492 100.382 35.332 100.376C35.2148 100.376 35.1533 100.373 35.1475 100.367C35.1182 100.367 35.0596 100.364 34.9717 100.358C34.8896 100.358 34.7959 100.355 34.6904 100.35C34.5908 100.35 34.4912 100.347 34.3916 100.341C34.2979 100.335 34.2246 100.329 34.1719 100.323C34.166 100.323 34.1484 100.32 34.1191 100.314C34.0898 100.309 34.0576 100.303 34.0225 100.297C33.9873 100.291 33.9551 100.285 33.9258 100.279C33.8965 100.273 33.8789 100.268 33.873 100.262H33.8203H33.7324C33.7031 100.268 33.6445 100.273 33.5566 100.279C33.4688 100.285 33.375 100.291 33.2754 100.297C33.1758 100.303 33.0791 100.309 32.9854 100.314C32.8975 100.32 32.8418 100.323 32.8184 100.323H32.2295C32.2178 100.323 32.1768 100.329 32.1064 100.341C32.042 100.358 32.0068 100.367 32.001 100.367C31.96 100.391 31.9102 100.402 31.8516 100.402C31.7988 100.408 31.7578 100.411 31.7285 100.411C31.7109 100.411 31.6758 100.405 31.623 100.394C31.5703 100.388 31.5117 100.379 31.4473 100.367C31.3887 100.355 31.333 100.344 31.2803 100.332C31.2275 100.326 31.1982 100.323 31.1924 100.323ZM40.4912 93.3623C40.4736 93.251 40.4502 93.1631 40.4209 93.0986C40.3916 93.0283 40.3535 92.9727 40.3066 92.9316C40.2598 92.8848 40.2012 92.8438 40.1309 92.8086C40.0605 92.7734 39.9727 92.7295 39.8672 92.6768C39.8027 92.6475 39.7354 92.627 39.665 92.6152C39.6006 92.5977 39.5596 92.583 39.542 92.5713C39.5068 92.5303 39.4805 92.4746 39.4629 92.4043C39.4453 92.3281 39.4365 92.2725 39.4365 92.2373C39.4365 92.2256 39.4365 92.2021 39.4365 92.167C39.4424 92.126 39.457 92.0967 39.4805 92.0791C39.4922 92.0732 39.5244 92.0645 39.5771 92.0527C39.6299 92.041 39.6709 92.0293 39.7002 92.0176C39.7588 92.0117 39.8232 92.0059 39.8936 92C39.9697 91.9941 40.04 91.9912 40.1045 91.9912C40.2041 91.9912 40.3066 92 40.4121 92.0176C40.5176 92.0293 40.6553 92.0498 40.8252 92.0791H41.1592C41.2705 92.0791 41.376 92.0791 41.4756 92.0791C41.5752 92.0791 41.6719 92.0762 41.7656 92.0703C41.8594 92.0645 41.9531 92.0586 42.0469 92.0527C42.1406 92.0469 42.2432 92.0352 42.3545 92.0176C42.3721 92.0176 42.4072 92.0088 42.46 91.9912C42.5127 91.9736 42.5449 91.9648 42.5566 91.9648H42.6182C42.7529 91.9648 42.876 91.9883 42.9873 92.0352C43.1045 92.082 43.1631 92.1787 43.1631 92.3252C43.1631 92.4248 43.1279 92.501 43.0576 92.5537C42.9873 92.6064 42.9023 92.6533 42.8027 92.6943C42.709 92.7354 42.6123 92.7764 42.5127 92.8174C42.4189 92.8525 42.3457 92.9023 42.293 92.9668C42.2344 93.0312 42.1875 93.1104 42.1523 93.2041C42.1172 93.292 42.0879 93.3887 42.0645 93.4941C42.0469 93.5938 42.0352 93.6934 42.0293 93.793C42.0234 93.8926 42.0205 93.9805 42.0205 94.0566C42.0205 94.1504 42.0322 94.2266 42.0557 94.2852C42.085 94.3438 42.0996 94.4141 42.0996 94.4961C42.0996 94.5137 42.0967 94.54 42.0908 94.5752C42.0908 94.6045 42.082 94.625 42.0645 94.6367C42.0645 94.6484 42.0615 94.6807 42.0557 94.7334C42.0498 94.7861 42.0439 94.8447 42.0381 94.9092C42.0381 94.9678 42.0352 95.0234 42.0293 95.0762C42.0234 95.1289 42.0205 95.1641 42.0205 95.1816V95.9551C42.0205 95.9844 42.0088 96.0342 41.9854 96.1045C41.9678 96.1748 41.9561 96.2217 41.9502 96.2451V96.3418V96.4297C41.9502 96.4414 41.9531 96.4707 41.959 96.5176C41.9707 96.5645 41.9795 96.6143 41.9854 96.667C41.9971 96.7197 42.0059 96.7695 42.0117 96.8164C42.0176 96.8633 42.0205 96.8926 42.0205 96.9043C42.0264 96.9336 42.0293 96.9863 42.0293 97.0625C42.0352 97.1328 42.041 97.209 42.0469 97.291C42.0527 97.3672 42.0557 97.4404 42.0557 97.5107C42.0615 97.5811 42.0645 97.6309 42.0645 97.6602C42.0703 97.707 42.082 97.7686 42.0996 97.8447C42.1172 97.915 42.1348 97.9883 42.1523 98.0645C42.1758 98.1406 42.1992 98.2139 42.2227 98.2842C42.2461 98.3545 42.2695 98.4102 42.293 98.4512C42.3164 98.5098 42.3574 98.583 42.416 98.6709C42.4805 98.7588 42.5508 98.8467 42.627 98.9346C42.7031 99.0166 42.7793 99.0898 42.8555 99.1543C42.9375 99.2188 43.0137 99.2598 43.084 99.2773C43.0957 99.2773 43.1221 99.2891 43.1631 99.3125C43.2041 99.3301 43.2393 99.3389 43.2686 99.3389C43.3096 99.3389 43.3301 99.3418 43.3301 99.3477C43.3945 99.3535 43.4531 99.3682 43.5059 99.3916C43.5586 99.4092 43.6084 99.4297 43.6553 99.4531C43.7021 99.4707 43.752 99.4883 43.8047 99.5059C43.8574 99.5234 43.916 99.5322 43.9805 99.5322H44.1035C44.1094 99.5264 44.1299 99.5146 44.165 99.4971C44.2002 99.4795 44.2354 99.4619 44.2705 99.4443C44.3115 99.4268 44.3467 99.4121 44.376 99.4004C44.4111 99.3887 44.4316 99.3828 44.4375 99.3828H44.5781C44.6367 99.3652 44.6982 99.3477 44.7627 99.3301C44.8096 99.3184 44.8594 99.3096 44.9121 99.3037C44.9648 99.292 45.0059 99.2832 45.0352 99.2773C45.1934 99.2246 45.334 99.1279 45.457 98.9873C45.5859 98.8408 45.6885 98.709 45.7646 98.5918C45.7705 98.5801 45.7793 98.5537 45.791 98.5127C45.8086 98.4717 45.8232 98.4307 45.835 98.3896C45.8525 98.3428 45.8672 98.2988 45.8789 98.2578C45.8906 98.2168 45.8965 98.1904 45.8965 98.1787C45.9668 97.9971 46.0195 97.8066 46.0547 97.6074C46.0898 97.4082 46.1133 97.2061 46.125 97.001C46.1367 96.79 46.1455 96.582 46.1514 96.377C46.1572 96.1719 46.1689 95.9727 46.1865 95.7793C46.1865 95.7734 46.1895 95.7559 46.1953 95.7266C46.2012 95.6914 46.2041 95.6562 46.2041 95.6211C46.21 95.5801 46.2158 95.5449 46.2217 95.5156C46.2275 95.4805 46.2305 95.457 46.2305 95.4453V95.0762V94.6807C46.2246 94.6338 46.2158 94.5488 46.2041 94.4258C46.1924 94.3027 46.1777 94.1709 46.1602 94.0303C46.1484 93.8896 46.1367 93.7578 46.125 93.6348C46.1191 93.5059 46.1162 93.415 46.1162 93.3623C46.1045 93.333 46.0811 93.2773 46.0459 93.1953C46.0107 93.1074 45.9814 93.0518 45.958 93.0283C45.9521 92.999 45.9434 92.9697 45.9316 92.9404C45.9199 92.9053 45.9082 92.8877 45.8965 92.8877C45.8555 92.8467 45.8174 92.8262 45.7822 92.8262C45.7529 92.8262 45.7266 92.8291 45.7031 92.835C45.6855 92.8408 45.665 92.8438 45.6416 92.8438C45.6123 92.8438 45.5859 92.8379 45.5625 92.8262C45.416 92.7969 45.2812 92.7617 45.1582 92.7207C45.041 92.6797 44.9326 92.5947 44.833 92.4658C44.8213 92.4365 44.8125 92.416 44.8066 92.4043C44.8066 92.3926 44.8066 92.3662 44.8066 92.3252C44.8066 92.3135 44.8096 92.3018 44.8154 92.29C44.8213 92.2725 44.8271 92.2578 44.833 92.2461C44.9268 92.1289 45.041 92.0586 45.1758 92.0352C45.3105 92.0059 45.4512 91.9912 45.5977 91.9912C45.7031 91.9912 45.8086 91.9971 45.9141 92.0088C46.0195 92.0146 46.1221 92.0176 46.2217 92.0176C46.2686 92.0176 46.3359 92.0088 46.4238 91.9912C46.5176 91.9736 46.5967 91.9648 46.6611 91.9648H47.2061C47.2588 91.9648 47.3203 91.9619 47.3906 91.9561C47.4668 91.9502 47.543 91.9473 47.6191 91.9473C47.7363 91.9473 47.8506 91.9561 47.9619 91.9736C48.0732 91.9912 48.167 92.0264 48.2432 92.0791C48.2549 92.0967 48.2607 92.1289 48.2607 92.1758C48.2666 92.2227 48.2695 92.252 48.2695 92.2637C48.2695 92.3809 48.2402 92.4717 48.1816 92.5361C48.1289 92.5947 48.0586 92.6416 47.9707 92.6768C47.8887 92.7061 47.7979 92.7295 47.6982 92.7471C47.6045 92.7646 47.5166 92.791 47.4346 92.8262C47.3408 92.8672 47.2646 92.9316 47.2061 93.0195C47.1475 93.1074 47.1182 93.2041 47.1182 93.3096C47.1182 93.4033 47.127 93.4854 47.1445 93.5557C47.168 93.626 47.1797 93.708 47.1797 93.8018V93.9512C47.1797 93.9688 47.168 94.0068 47.1445 94.0654C47.127 94.124 47.1182 94.1562 47.1182 94.1621V94.3818V94.8916C47.1123 94.9561 47.1064 95.0674 47.1006 95.2256C47.0947 95.3838 47.0859 95.5537 47.0742 95.7354C47.0684 95.9111 47.0625 96.0781 47.0566 96.2363C47.0508 96.3945 47.0449 96.5059 47.0391 96.5703C47.0098 96.6289 46.9893 96.6875 46.9775 96.7461C46.9658 96.7988 46.957 96.8545 46.9512 96.9131C46.9453 96.9658 46.9395 97.0186 46.9336 97.0713C46.9336 97.124 46.9248 97.1797 46.9072 97.2383C46.9014 97.2559 46.8926 97.2881 46.8809 97.335C46.8691 97.376 46.8545 97.4229 46.8369 97.4756C46.8252 97.5283 46.8135 97.5781 46.8018 97.625C46.79 97.666 46.7842 97.6924 46.7842 97.7041C46.7725 97.7158 46.7637 97.7451 46.7578 97.792C46.752 97.833 46.7461 97.877 46.7402 97.9238C46.7402 97.9648 46.7344 98.0059 46.7227 98.0469C46.7168 98.082 46.7109 98.0996 46.7051 98.0996C46.7051 98.1172 46.6846 98.1582 46.6436 98.2227C46.6025 98.2812 46.5791 98.3164 46.5732 98.3281C46.5615 98.3398 46.541 98.3779 46.5117 98.4424C46.4824 98.5068 46.4473 98.5771 46.4062 98.6533C46.3711 98.7295 46.3359 98.7998 46.3008 98.8643C46.2656 98.9287 46.2422 98.9697 46.2305 98.9873C46.125 99.1865 45.9873 99.3652 45.8174 99.5234C45.6533 99.6816 45.4775 99.8428 45.29 100.007C45.2666 100.024 45.2314 100.051 45.1846 100.086C45.1377 100.115 45.0879 100.147 45.0352 100.183C44.9883 100.218 44.9443 100.25 44.9033 100.279C44.8623 100.303 44.8389 100.317 44.833 100.323H44.5781C44.4668 100.335 44.3672 100.347 44.2793 100.358C44.1973 100.376 44.1152 100.391 44.0332 100.402C43.9512 100.42 43.8662 100.435 43.7783 100.446C43.6904 100.458 43.5908 100.464 43.4795 100.464H42.9521C42.8877 100.435 42.8203 100.414 42.75 100.402C42.6797 100.391 42.6094 100.379 42.5391 100.367C42.4746 100.361 42.4102 100.35 42.3457 100.332C42.2812 100.32 42.2197 100.297 42.1611 100.262C42.1436 100.256 42.1055 100.235 42.0469 100.2C41.9883 100.159 41.9209 100.112 41.8447 100.06C41.7744 100.007 41.7041 99.957 41.6338 99.9102C41.5635 99.8574 41.5107 99.8135 41.4756 99.7783L41.4141 99.7344C41.3672 99.6582 41.3174 99.5938 41.2646 99.541C41.2119 99.4824 41.1592 99.4268 41.1064 99.374C41.0537 99.3213 41.001 99.2656 40.9482 99.207C40.9014 99.1426 40.8604 99.0693 40.8252 98.9873C40.7021 98.7061 40.6143 98.4043 40.5615 98.082C40.5146 97.7539 40.4912 97.4316 40.4912 97.1152C40.4854 97.0449 40.4795 96.9482 40.4736 96.8252C40.4736 96.6963 40.4736 96.5498 40.4736 96.3857C40.4736 96.2158 40.4736 96.0342 40.4736 95.8408C40.4736 95.6475 40.4736 95.4482 40.4736 95.2432C40.4736 95.0439 40.4736 94.8477 40.4736 94.6543C40.4736 94.4609 40.4736 94.2822 40.4736 94.1182C40.4736 93.9482 40.4736 93.7988 40.4736 93.6699C40.4795 93.5352 40.4854 93.4326 40.4912 93.3623ZM54.1318 93.3271C54.1787 93.3037 54.2109 93.2627 54.2285 93.2041C54.2461 93.1455 54.2549 93.0869 54.2549 93.0283C54.2549 92.9053 54.208 92.8203 54.1143 92.7734C54.0264 92.7207 53.9268 92.6826 53.8154 92.6592C53.71 92.6299 53.6104 92.6006 53.5166 92.5713C53.4287 92.5361 53.3848 92.4746 53.3848 92.3867C53.3848 92.3574 53.3965 92.334 53.4199 92.3164C53.4434 92.293 53.4727 92.2754 53.5078 92.2637C53.543 92.2461 53.5781 92.2314 53.6133 92.2197C53.6543 92.208 53.6895 92.1963 53.7188 92.1846C53.748 92.1729 53.7949 92.1611 53.8594 92.1494C53.9297 92.1377 53.9707 92.1318 53.9824 92.1318H55.5293C55.6348 92.085 55.7373 92.0586 55.8369 92.0527C55.9365 92.041 56.0361 92.0352 56.1357 92.0352C56.2119 92.0352 56.2822 92.0381 56.3467 92.0439C56.417 92.0439 56.4756 92.0527 56.5225 92.0703C56.5752 92.0879 56.6162 92.1201 56.6455 92.167C56.6748 92.2139 56.6895 92.2812 56.6895 92.3691C56.6895 92.4922 56.6543 92.5859 56.584 92.6504C56.5195 92.7148 56.4375 92.7646 56.3379 92.7998C56.2383 92.8291 56.1328 92.8525 56.0215 92.8701C55.916 92.8877 55.8223 92.9082 55.7402 92.9316C55.4766 93.0254 55.2422 93.1514 55.0371 93.3096C54.8379 93.4619 54.6475 93.6494 54.4658 93.8721C54.4482 93.8896 54.416 93.9277 54.3691 93.9863C54.3223 94.0391 54.2695 94.0977 54.2109 94.1621C54.1582 94.2266 54.1084 94.2881 54.0615 94.3467C54.0146 94.3994 53.9824 94.4346 53.9648 94.4521C53.9414 94.4814 53.915 94.5166 53.8857 94.5576C53.8564 94.5986 53.8213 94.6338 53.7803 94.6631C53.7041 94.7275 53.6309 94.8096 53.5605 94.9092C53.4902 95.0088 53.4316 95.1055 53.3848 95.1992C53.3613 95.2402 53.3408 95.2783 53.3232 95.3135C53.3115 95.3486 53.3057 95.3955 53.3057 95.4541C53.3057 95.5771 53.3379 95.7061 53.4023 95.8408C53.4668 95.9756 53.5283 96.1016 53.5869 96.2188C53.6104 96.2539 53.6396 96.3066 53.6748 96.377C53.71 96.4414 53.7451 96.5059 53.7803 96.5703C53.8154 96.6348 53.8447 96.6934 53.8682 96.7461C53.8975 96.7988 53.915 96.8311 53.9209 96.8428C53.9268 96.8545 53.9473 96.8896 53.9824 96.9482C54.0234 97.001 54.0674 97.0625 54.1143 97.1328C54.1611 97.1973 54.2021 97.2588 54.2373 97.3174C54.2783 97.376 54.3047 97.4141 54.3164 97.4316L54.5273 97.8271C54.5977 97.9912 54.6709 98.1553 54.7471 98.3193C54.8232 98.4775 54.9053 98.6328 54.9932 98.7852C55.0811 98.9316 55.1807 99.0723 55.292 99.207C55.4033 99.3418 55.5322 99.4707 55.6787 99.5938C55.7314 99.6348 55.7988 99.6699 55.8809 99.6992C55.9629 99.7227 56.042 99.749 56.1182 99.7783C56.2002 99.8076 56.2676 99.8486 56.3203 99.9014C56.3789 99.9482 56.4082 100.019 56.4082 100.112C56.4082 100.229 56.3701 100.303 56.2939 100.332C56.2236 100.367 56.1416 100.385 56.0479 100.385C55.9951 100.385 55.9395 100.382 55.8809 100.376C55.8281 100.37 55.7812 100.367 55.7402 100.367C55.7168 100.379 55.6582 100.388 55.5645 100.394C55.4707 100.405 55.3682 100.417 55.2568 100.429C55.1514 100.44 55.0518 100.449 54.958 100.455C54.8643 100.461 54.8057 100.464 54.7822 100.464H54.7383C54.7324 100.464 54.7119 100.461 54.6768 100.455C54.6416 100.449 54.6035 100.44 54.5625 100.429C54.5273 100.417 54.4893 100.405 54.4482 100.394C54.4131 100.388 54.3926 100.379 54.3867 100.367C54.3574 100.367 54.2959 100.364 54.2021 100.358C54.1143 100.353 54.0176 100.347 53.9121 100.341C53.8125 100.341 53.7188 100.338 53.6309 100.332C53.543 100.326 53.4873 100.323 53.4639 100.323C53.4404 100.323 53.3906 100.317 53.3145 100.306C53.2441 100.288 53.1973 100.273 53.1738 100.262V100.2C53.1738 100.106 53.1943 100.042 53.2354 100.007C53.2822 99.9717 53.3291 99.9424 53.376 99.9189C53.4287 99.8896 53.4756 99.8545 53.5166 99.8135C53.5635 99.7725 53.5869 99.6992 53.5869 99.5938C53.5869 99.5352 53.5693 99.4414 53.5342 99.3125C53.499 99.1836 53.4492 99.043 53.3848 98.8906C53.3262 98.7324 53.2588 98.5713 53.1826 98.4072C53.1123 98.2432 53.0361 98.0938 52.9541 97.959C52.8779 97.8242 52.8047 97.7129 52.7344 97.625C52.6641 97.5371 52.6025 97.4932 52.5498 97.4932C52.4502 97.4932 52.3682 97.5225 52.3037 97.5811C52.2393 97.6338 52.1836 97.7012 52.1367 97.7832C52.0898 97.8594 52.0488 97.9414 52.0137 98.0293C51.9785 98.1172 51.9434 98.1934 51.9082 98.2578C51.8906 98.2871 51.8467 98.3574 51.7764 98.4688C51.7061 98.5742 51.627 98.6914 51.5391 98.8203C51.457 98.9492 51.3779 99.0693 51.3018 99.1807C51.2314 99.292 51.1875 99.3594 51.1699 99.3828C51.1582 99.3887 51.1436 99.4092 51.126 99.4443C51.1143 99.4736 51.1025 99.4941 51.0908 99.5059V99.5674C51.0908 99.6494 51.126 99.708 51.1963 99.7432C51.2666 99.7783 51.3486 99.8105 51.4424 99.8398C51.5361 99.8633 51.6299 99.8955 51.7236 99.9365C51.8232 99.9717 51.8994 100.03 51.9521 100.112C51.9521 100.188 51.9316 100.241 51.8906 100.271C51.8555 100.294 51.8115 100.312 51.7588 100.323H49.2979C49.251 100.323 49.2217 100.306 49.21 100.271C49.2041 100.229 49.2012 100.2 49.2012 100.183V100.112C49.2715 100.03 49.3506 99.9629 49.4385 99.9102C49.5322 99.8574 49.626 99.8105 49.7197 99.7695C49.8193 99.7285 49.9189 99.6904 50.0186 99.6553C50.1182 99.6143 50.2119 99.5645 50.2998 99.5059C50.3232 99.4824 50.3701 99.4385 50.4404 99.374C50.5107 99.3037 50.584 99.2305 50.6602 99.1543C50.7422 99.0781 50.8184 99.0049 50.8887 98.9346C50.9648 98.8643 51.0176 98.8145 51.0469 98.7852C51.1992 98.6094 51.3281 98.4277 51.4336 98.2402C51.5449 98.0469 51.6533 97.8506 51.7588 97.6514C51.7705 97.6338 51.7969 97.6074 51.8379 97.5723C51.8789 97.5312 51.9023 97.5049 51.9082 97.4932C51.9258 97.4697 51.9492 97.4375 51.9785 97.3965C52.0137 97.3496 52.043 97.3057 52.0664 97.2646C52.0957 97.2236 52.1191 97.1885 52.1367 97.1592C52.1602 97.124 52.1719 97.1035 52.1719 97.0977C52.1719 97.0977 52.1719 97.083 52.1719 97.0537C52.1777 97.0186 52.1807 96.9805 52.1807 96.9395C52.1865 96.8984 52.1895 96.8604 52.1895 96.8252C52.1953 96.7842 52.1982 96.7549 52.1982 96.7373C52.1982 96.7197 52.1953 96.6934 52.1895 96.6582C52.1895 96.623 52.1865 96.585 52.1807 96.5439C52.1807 96.5029 52.1777 96.4648 52.1719 96.4297C52.1719 96.3887 52.1719 96.3623 52.1719 96.3506C52.0078 96.251 51.8848 96.1367 51.8027 96.0078C51.7207 95.873 51.6445 95.7207 51.5742 95.5508C51.5684 95.5332 51.5508 95.501 51.5215 95.4541C51.4922 95.4072 51.4629 95.3604 51.4336 95.3135C51.4043 95.2607 51.375 95.2139 51.3457 95.1729C51.3223 95.126 51.3076 95.0996 51.3018 95.0938C51.2783 95.0469 51.2432 94.9736 51.1963 94.874C51.1553 94.7744 51.1201 94.7041 51.0908 94.6631C51.0791 94.6572 51.0674 94.6396 51.0557 94.6104C51.0439 94.5752 51.0322 94.54 51.0205 94.5049C51.0088 94.4697 50.9971 94.4346 50.9854 94.3994C50.9795 94.3643 50.9736 94.3408 50.9678 94.3291L50.9502 94.3115C50.9443 94.3057 50.9355 94.3027 50.9238 94.3027C50.918 94.2969 50.9121 94.2881 50.9062 94.2764C50.8828 94.2588 50.8623 94.2412 50.8447 94.2236C50.7275 94.0771 50.6338 93.9248 50.5635 93.7666C50.499 93.6084 50.4111 93.4619 50.2998 93.3271C50.2236 93.2393 50.1445 93.1631 50.0625 93.0986C49.9805 93.0283 49.8955 92.9639 49.8076 92.9053C49.7256 92.8467 49.6406 92.7881 49.5527 92.7295C49.4648 92.6709 49.3799 92.6035 49.2979 92.5273C49.251 92.498 49.2217 92.4629 49.21 92.4219C49.2041 92.375 49.2012 92.3281 49.2012 92.2812C49.2012 92.2168 49.2158 92.1758 49.2451 92.1582C49.2744 92.1406 49.3213 92.1318 49.3857 92.1318H49.4209C49.4209 92.1318 49.4326 92.1348 49.4561 92.1406C49.4854 92.1465 49.5146 92.1523 49.5439 92.1582C49.5791 92.1641 49.6084 92.1699 49.6318 92.1758C49.6611 92.1816 49.6816 92.1846 49.6934 92.1846H49.7373C50.1123 92.1846 50.4814 92.1729 50.8447 92.1494C51.2139 92.126 51.583 92.1143 51.9521 92.1143C52.0928 92.1143 52.1953 92.1318 52.2598 92.167C52.3301 92.1963 52.3652 92.2783 52.3652 92.4131C52.3652 92.5303 52.3418 92.6123 52.2949 92.6592C52.248 92.7002 52.1953 92.7324 52.1367 92.7559C52.0781 92.7793 52.0254 92.8086 51.9785 92.8438C51.9316 92.8789 51.9082 92.9492 51.9082 93.0547C51.9082 93.1016 51.9258 93.1631 51.9609 93.2393C51.9961 93.3096 52.0254 93.3594 52.0488 93.3887C52.0664 93.418 52.1045 93.4912 52.1631 93.6084C52.2275 93.7197 52.2949 93.8428 52.3652 93.9775C52.4414 94.1064 52.5117 94.2266 52.5762 94.3379C52.6406 94.4492 52.6816 94.5195 52.6992 94.5488C52.7402 94.6074 52.7754 94.6543 52.8047 94.6895C52.8398 94.7246 52.8809 94.7422 52.9277 94.7422C52.998 94.7422 53.0771 94.7129 53.165 94.6543C53.2588 94.5898 53.3789 94.502 53.5254 94.3906C53.584 94.3438 53.6426 94.2705 53.7012 94.1709C53.7656 94.0654 53.8242 93.96 53.877 93.8545C53.9297 93.7432 53.9766 93.6377 54.0176 93.5381C54.0645 93.4385 54.1025 93.3682 54.1318 93.3271ZM65.2764 100.306C65.2529 100.306 65.2178 100.309 65.1709 100.314C65.1299 100.314 65.0859 100.314 65.0391 100.314C64.998 100.314 64.96 100.317 64.9248 100.323C64.8896 100.323 64.8721 100.323 64.8721 100.323L64.6611 100.402L63.5801 100.341H61.2773C61.1895 100.312 61.1133 100.291 61.0488 100.279C60.9902 100.268 60.9199 100.262 60.8379 100.262C60.7734 100.262 60.7236 100.265 60.6885 100.271C60.6533 100.276 60.6064 100.294 60.5479 100.323C60.4893 100.323 60.3896 100.32 60.249 100.314C60.1143 100.309 59.9707 100.306 59.8184 100.306C59.666 100.306 59.5195 100.309 59.3789 100.314C59.2441 100.32 59.1533 100.323 59.1064 100.323C59.0889 100.323 59.0566 100.326 59.0098 100.332C58.9688 100.338 58.9219 100.341 58.8691 100.341C58.8223 100.347 58.7754 100.353 58.7285 100.358C58.6875 100.364 58.6611 100.367 58.6494 100.367C58.6318 100.373 58.6113 100.376 58.5879 100.376C58.5703 100.382 58.5527 100.385 58.5352 100.385C58.5234 100.385 58.5117 100.385 58.5 100.385C58.3418 100.385 58.2217 100.367 58.1396 100.332C58.0635 100.303 57.9961 100.209 57.9375 100.051C57.9141 100.051 57.9023 100.045 57.9023 100.033C57.8965 100.027 57.8965 100.019 57.9023 100.007C57.9023 99.96 57.917 99.9102 57.9463 99.8574C57.9814 99.7988 58.0225 99.7461 58.0693 99.6992C58.1221 99.6523 58.1748 99.6143 58.2275 99.585C58.2861 99.5498 58.3418 99.5322 58.3945 99.5322H59.2295C59.2412 99.5322 59.2793 99.5 59.3438 99.4355C59.4082 99.3652 59.4609 99.3125 59.502 99.2773C59.5137 99.2656 59.5254 99.2422 59.5371 99.207C59.5547 99.166 59.5635 99.1367 59.5635 99.1191C59.6338 98.7734 59.6748 98.4307 59.6865 98.0908C59.6982 97.751 59.7041 97.3965 59.7041 97.0273C59.7041 96.998 59.7041 96.9336 59.7041 96.834C59.71 96.7285 59.7129 96.6055 59.7129 96.4648C59.7188 96.3242 59.7246 96.1777 59.7305 96.0254C59.7363 95.8672 59.7393 95.7178 59.7393 95.5771C59.7451 95.4365 59.748 95.3164 59.748 95.2168C59.7539 95.1113 59.7568 95.041 59.7568 95.0059V94.5312C59.7568 94.0625 59.748 93.5996 59.7305 93.1426C59.7129 92.6855 59.7041 92.2314 59.7041 91.7803V91.7188C59.7041 91.7012 59.707 91.6572 59.7129 91.5869C59.7188 91.5107 59.7246 91.4316 59.7305 91.3496C59.7363 91.2676 59.7422 91.1914 59.748 91.1211C59.7539 91.0508 59.7568 91.0068 59.7568 90.9893C59.7627 90.9365 59.7686 90.8457 59.7744 90.7168C59.7803 90.582 59.7861 90.4414 59.792 90.2949C59.7979 90.1426 59.8037 90.002 59.8096 89.873C59.8154 89.7441 59.8184 89.6533 59.8184 89.6006C59.7891 89.5127 59.7715 89.4219 59.7656 89.3281C59.7598 89.2285 59.751 89.1348 59.7393 89.0469C59.7275 88.9531 59.7041 88.8652 59.6689 88.7832C59.6338 88.7012 59.5781 88.6309 59.502 88.5723C59.4668 88.5664 59.4053 88.5605 59.3174 88.5547C59.2295 88.5488 59.1357 88.5459 59.0361 88.5459C58.9424 88.54 58.8516 88.5342 58.7637 88.5283C58.6758 88.5225 58.6172 88.5166 58.5879 88.5107C58.4941 88.499 58.3916 88.4844 58.2803 88.4668C58.1689 88.4434 58.0664 88.4111 57.9727 88.3701C57.8789 88.3232 57.7998 88.2617 57.7354 88.1855C57.6768 88.1094 57.6475 88.0098 57.6475 87.8867L57.6826 87.8691C57.6943 87.8633 57.7031 87.8574 57.709 87.8516C57.7148 87.8457 57.7236 87.8428 57.7354 87.8428C57.876 87.7607 58.002 87.708 58.1133 87.6846C58.2246 87.6553 58.3682 87.6406 58.5439 87.6406H58.5879C58.6055 87.6582 58.623 87.6729 58.6406 87.6846C58.6758 87.708 58.6992 87.7197 58.7109 87.7197C59.0039 87.7432 59.2969 87.7607 59.5898 87.7725C59.8828 87.7783 60.1787 87.7812 60.4775 87.7812C60.7236 87.7812 60.9639 87.7783 61.1982 87.7725C61.4326 87.7666 61.6641 87.7637 61.8926 87.7637H63.835C63.8584 87.7637 63.8965 87.7607 63.9492 87.7549C64.002 87.749 64.0576 87.7461 64.1162 87.7461C64.1807 87.7402 64.2422 87.7344 64.3008 87.7285C64.3594 87.7227 64.4033 87.7197 64.4326 87.7197H64.4941H64.5469C64.5645 87.7197 64.6055 87.7227 64.6699 87.7285C64.7344 87.7344 64.8047 87.7402 64.8809 87.7461C64.957 87.7461 65.0273 87.749 65.0918 87.7549C65.1621 87.7607 65.2061 87.7637 65.2236 87.7637H66.2695C66.3164 87.7695 66.3838 87.7754 66.4717 87.7812C66.5654 87.7871 66.6562 87.793 66.7441 87.7988C66.8379 87.8047 66.9199 87.8135 66.9902 87.8252C67.0605 87.8311 67.0986 87.8369 67.1045 87.8428C67.1104 87.8428 67.1338 87.8516 67.1748 87.8691C67.2158 87.8867 67.2598 87.9102 67.3066 87.9395C67.3594 87.9629 67.4092 87.9893 67.4561 88.0186C67.5088 88.0479 67.5498 88.0742 67.5791 88.0977C67.6377 88.1328 67.6846 88.2178 67.7197 88.3525C67.7607 88.4814 67.793 88.625 67.8164 88.7832C67.8398 88.9414 67.8574 89.0967 67.8691 89.249C67.8867 89.4014 67.9014 89.5186 67.9131 89.6006C67.9131 89.6299 67.916 89.6826 67.9219 89.7588C67.9336 89.8291 67.9424 89.9053 67.9482 89.9873C67.9541 90.0693 67.96 90.1484 67.9658 90.2246C67.9717 90.3008 67.9746 90.3535 67.9746 90.3828V90.6201V90.8662C67.9453 90.9189 67.9072 90.9541 67.8604 90.9717C67.8135 90.9834 67.7637 90.9893 67.7109 90.9893H67.6494C67.585 90.9482 67.5381 90.9072 67.5088 90.8662C67.4795 90.8252 67.4561 90.7842 67.4385 90.7432C67.4209 90.6963 67.4033 90.6494 67.3857 90.6025C67.374 90.5557 67.3506 90.5059 67.3154 90.4531C67.3154 90.4473 67.3037 90.4355 67.2803 90.418C67.2627 90.3945 67.2422 90.3711 67.2188 90.3477C67.1953 90.3242 67.1719 90.3037 67.1484 90.2861C67.125 90.2627 67.1104 90.248 67.1045 90.2422C67.0225 90.125 66.9404 89.9932 66.8584 89.8467C66.7822 89.6943 66.6914 89.5537 66.5859 89.4248C66.5801 89.4131 66.5596 89.3926 66.5244 89.3633C66.4951 89.334 66.4746 89.3076 66.4629 89.2842C66.457 89.2725 66.4365 89.2637 66.4014 89.2578C66.3662 89.2461 66.3428 89.2344 66.3311 89.2227C66.2607 89.1758 66.2051 89.123 66.1641 89.0645C66.123 89.0059 66.0791 88.9502 66.0322 88.8975C65.9912 88.8389 65.9443 88.7832 65.8916 88.7305C65.8389 88.6777 65.7656 88.6338 65.6719 88.5986C65.625 88.5986 65.5342 88.5957 65.3994 88.5898C65.2705 88.5781 65.1328 88.5693 64.9863 88.5635C64.8398 88.5518 64.6992 88.543 64.5645 88.5371C64.4355 88.5254 64.3447 88.5166 64.292 88.5107H63.835C63.8291 88.5107 63.8027 88.5078 63.7559 88.502C63.7148 88.4902 63.668 88.4814 63.6152 88.4756C63.5625 88.4639 63.5127 88.4551 63.4658 88.4492C63.4189 88.4375 63.3896 88.4316 63.3779 88.4316H63.2461H63.123C63.0996 88.4316 63.0469 88.4375 62.9648 88.4492C62.8887 88.4551 62.8037 88.4639 62.71 88.4756C62.6221 88.4814 62.5371 88.4902 62.4551 88.502C62.3789 88.5078 62.332 88.5107 62.3145 88.5107H61.7959C61.7725 88.5107 61.7461 88.5195 61.7168 88.5371C61.6875 88.5488 61.6729 88.5605 61.6729 88.5723V89.6621C61.667 89.8496 61.6406 90.0283 61.5938 90.1982C61.5469 90.3682 61.5234 90.541 61.5234 90.7168C61.5234 90.9805 61.5352 91.2471 61.5586 91.5166C61.5879 91.7803 61.6025 92.0498 61.6025 92.3252C61.6025 92.5127 61.5879 92.7031 61.5586 92.8965C61.5352 93.0898 61.5234 93.2891 61.5234 93.4941V93.5557C61.541 93.5732 61.5645 93.5996 61.5938 93.6348C61.623 93.6641 61.6494 93.6787 61.6729 93.6787H61.8926H62.1211C62.1328 93.6787 62.1592 93.6758 62.2002 93.6699C62.2412 93.6582 62.2852 93.6494 62.332 93.6436C62.3789 93.6318 62.4199 93.623 62.4551 93.6172C62.4961 93.6055 62.5195 93.5996 62.5254 93.5996H63.3076C63.3486 93.5996 63.4219 93.5967 63.5273 93.5908C63.6387 93.585 63.7529 93.582 63.8701 93.582C63.9932 93.5762 64.1074 93.5703 64.2129 93.5645C64.3184 93.5586 64.3916 93.5557 64.4326 93.5557C64.5205 93.4795 64.585 93.3682 64.626 93.2217C64.667 93.0693 64.708 92.9434 64.749 92.8438C64.7549 92.8262 64.7607 92.7852 64.7666 92.7207C64.7783 92.6504 64.79 92.5771 64.8018 92.501C64.8135 92.4248 64.8252 92.3545 64.8369 92.29C64.8486 92.2197 64.8604 92.1758 64.8721 92.1582C64.8721 92.1523 64.8779 92.1377 64.8896 92.1143C64.9072 92.085 64.9248 92.0586 64.9424 92.0352C64.96 92.0059 64.9746 91.9795 64.9863 91.9561C65.0039 91.9326 65.0156 91.918 65.0215 91.9121C65.0449 91.8359 65.0596 91.7539 65.0654 91.666C65.0713 91.5781 65.0859 91.499 65.1094 91.4287C65.1328 91.3525 65.1709 91.291 65.2236 91.2441C65.2764 91.1973 65.3613 91.1738 65.4785 91.1738C65.6074 91.1738 65.6924 91.2031 65.7334 91.2617C65.7744 91.3203 65.7949 91.417 65.7949 91.5518C65.7949 91.5986 65.792 91.6338 65.7861 91.6572C65.7803 91.6748 65.7686 91.7158 65.751 91.7803C65.751 91.7861 65.748 91.8008 65.7422 91.8242C65.7363 91.8477 65.7334 91.874 65.7334 91.9033C65.7334 91.9502 65.7363 91.9941 65.7422 92.0352C65.748 92.0703 65.751 92.0967 65.751 92.1143C65.7451 92.1494 65.7393 92.2227 65.7334 92.334C65.7275 92.4453 65.7188 92.5742 65.707 92.7207C65.6953 92.8672 65.6836 93.0254 65.6719 93.1953C65.6602 93.3594 65.6484 93.5176 65.6367 93.6699C65.625 93.8164 65.6133 93.9453 65.6016 94.0566C65.5957 94.168 65.5898 94.2441 65.584 94.2852C65.584 94.2969 65.5869 94.3525 65.5928 94.4521C65.5986 94.5459 65.6016 94.6426 65.6016 94.7422C65.6016 94.7891 65.5957 94.8418 65.584 94.9004C65.5723 94.9531 65.5635 94.9883 65.5576 95.0059C65.5576 95.0059 65.5518 95.0205 65.54 95.0498C65.5342 95.0791 65.5254 95.1143 65.5137 95.1553C65.5078 95.1904 65.499 95.2256 65.4873 95.2607C65.4814 95.29 65.4785 95.3105 65.4785 95.3223C65.4785 95.3398 65.4814 95.3809 65.4873 95.4453C65.4932 95.5098 65.499 95.5801 65.5049 95.6562C65.5166 95.7266 65.5254 95.7939 65.5312 95.8584C65.5371 95.917 65.54 95.9551 65.54 95.9727C65.54 95.9961 65.54 96.0312 65.54 96.0781C65.5459 96.1191 65.5488 96.1631 65.5488 96.21C65.5488 96.251 65.5488 96.292 65.5488 96.333C65.5547 96.374 65.5576 96.4062 65.5576 96.4297C65.5576 96.5293 65.5459 96.6201 65.5225 96.7021C65.5049 96.7842 65.4639 96.875 65.3994 96.9746C65.3936 97.0039 65.3643 97.0361 65.3115 97.0713C65.2646 97.1006 65.2354 97.1152 65.2236 97.1152C65.2119 97.1152 65.1797 97.1006 65.127 97.0713C65.0742 97.0361 65.0391 97.0039 65.0215 96.9746C64.9219 96.8926 64.8516 96.7783 64.8105 96.6318C64.7754 96.4854 64.752 96.3271 64.7402 96.1572C64.7285 95.9814 64.7227 95.8027 64.7227 95.6211C64.7227 95.4395 64.7109 95.2725 64.6875 95.1201C64.6699 94.9619 64.6318 94.8301 64.5732 94.7246C64.5146 94.6191 64.4209 94.5547 64.292 94.5312C64.2451 94.543 64.1719 94.5488 64.0723 94.5488C63.9727 94.5488 63.8643 94.5488 63.7471 94.5488C63.624 94.5488 63.5068 94.5488 63.3955 94.5488C63.29 94.5488 63.2197 94.543 63.1846 94.5312C63.1553 94.5312 63.1084 94.5283 63.0439 94.5225C62.9795 94.5166 62.9121 94.5137 62.8418 94.5137C62.7773 94.5078 62.7129 94.502 62.6484 94.4961C62.5898 94.4902 62.5488 94.4873 62.5254 94.4873C62.5195 94.4697 62.4961 94.4492 62.4551 94.4258C62.4141 94.4023 62.3877 94.3906 62.376 94.3906H62.2881C62.1357 94.3906 61.9893 94.4287 61.8486 94.5049C61.7139 94.5752 61.6318 94.6895 61.6025 94.8477C61.5967 94.8887 61.582 94.9707 61.5586 95.0938C61.541 95.2109 61.5205 95.3398 61.4971 95.4805C61.4795 95.6211 61.459 95.7588 61.4355 95.8936C61.418 96.0225 61.4062 96.1191 61.4004 96.1836V96.2363V96.2979C61.4004 96.3447 61.4033 96.4209 61.4092 96.5264C61.415 96.6318 61.4209 96.7461 61.4268 96.8691C61.4326 96.9863 61.4385 97.1006 61.4443 97.2119C61.4561 97.3174 61.4619 97.3906 61.4619 97.4316C61.4912 97.4785 61.5088 97.5137 61.5146 97.5371C61.5205 97.5605 61.5234 97.5869 61.5234 97.6162C61.5234 97.8447 61.5117 98.0674 61.4883 98.2842C61.4648 98.501 61.4531 98.7295 61.4531 98.9697C61.4531 98.9932 61.4531 99.043 61.4531 99.1191C61.459 99.1953 61.4619 99.248 61.4619 99.2773C61.4678 99.2891 61.4824 99.3096 61.5059 99.3389C61.5293 99.3623 61.5527 99.3887 61.5762 99.418C61.6055 99.4414 61.6348 99.4648 61.6641 99.4883C61.6934 99.5117 61.7139 99.5264 61.7256 99.5322C61.7314 99.5439 61.7578 99.5527 61.8047 99.5586C61.8574 99.5645 61.916 99.5703 61.9805 99.5762C62.0449 99.5762 62.1064 99.582 62.165 99.5938C62.2295 99.5996 62.2793 99.6055 62.3145 99.6113C62.3848 99.6113 62.5049 99.6143 62.6748 99.6201C62.8506 99.626 63.0352 99.6318 63.2285 99.6377C63.4277 99.6436 63.6123 99.6494 63.7822 99.6553C63.958 99.6553 64.0811 99.6553 64.1514 99.6553C64.2217 99.6846 64.292 99.7051 64.3623 99.7168C64.4385 99.7285 64.5117 99.7344 64.582 99.7344H64.8281H65.2236C65.2295 99.7344 65.25 99.7314 65.2852 99.7256C65.3203 99.7139 65.3584 99.7051 65.3994 99.6992C65.4463 99.6875 65.4873 99.6787 65.5225 99.6729C65.5576 99.6611 65.5781 99.6553 65.584 99.6553H67.2539C67.3184 99.6377 67.3799 99.6055 67.4385 99.5586C67.4971 99.5059 67.5527 99.4502 67.6055 99.3916C67.6582 99.3271 67.7051 99.2627 67.7461 99.1982C67.7871 99.1279 67.8223 99.0664 67.8516 99.0137C67.8691 98.9961 67.8926 98.9551 67.9219 98.8906C67.957 98.8262 67.9893 98.7588 68.0186 98.6885C68.0537 98.6123 68.0859 98.542 68.1152 98.4775C68.1445 98.4131 68.1621 98.375 68.168 98.3633C68.1797 98.3457 68.2061 98.3105 68.2471 98.2578C68.2881 98.2051 68.3086 98.1729 68.3086 98.1611C68.3145 98.1494 68.3262 98.1172 68.3438 98.0645C68.3613 98.0117 68.3701 97.9795 68.3701 97.9678C68.376 97.9619 68.3906 97.9443 68.4141 97.915C68.4434 97.8857 68.4727 97.8564 68.502 97.8271C68.5312 97.7979 68.5576 97.7686 68.5811 97.7393C68.6045 97.71 68.6191 97.6895 68.625 97.6777C68.6309 97.6719 68.6426 97.6543 68.6602 97.625C68.6836 97.5898 68.7041 97.5518 68.7217 97.5107C68.7451 97.4639 68.7627 97.4229 68.7744 97.3877C68.792 97.3467 68.8037 97.3203 68.8096 97.3086C68.8213 97.2852 68.8535 97.25 68.9062 97.2031C68.9648 97.1562 68.9971 97.127 69.0029 97.1152C69.0146 97.1035 69.0293 97.0947 69.0469 97.0889C69.0645 97.0771 69.0791 97.0654 69.0908 97.0537C69.1084 97.042 69.126 97.0332 69.1436 97.0273C69.167 97.0391 69.2021 97.0684 69.249 97.1152C69.2959 97.1621 69.3311 97.1973 69.3545 97.2207V97.2646C69.3545 97.335 69.3428 97.4023 69.3193 97.4668C69.3018 97.5312 69.293 97.5957 69.293 97.6602C69.293 97.7422 69.3018 97.8154 69.3193 97.8799C69.3428 97.9385 69.3545 98.0088 69.3545 98.0908V98.1611C69.3545 98.1787 69.3428 98.2109 69.3193 98.2578C69.3018 98.3047 69.293 98.3398 69.293 98.3633V99.3916C69.2871 99.4619 69.2783 99.5527 69.2666 99.6641C69.2549 99.7695 69.2314 99.8721 69.1963 99.9717C69.1611 100.065 69.1113 100.147 69.0469 100.218C68.9824 100.288 68.8975 100.323 68.792 100.323H68.748C68.7305 100.317 68.7012 100.312 68.6602 100.306C68.6191 100.3 68.5781 100.294 68.5371 100.288C68.4961 100.282 68.458 100.276 68.4229 100.271C68.3936 100.265 68.376 100.262 68.3701 100.262L68.3174 100.227C68.2822 100.203 68.2646 100.188 68.2646 100.183H68.2119H68.168C67.9629 100.253 67.7695 100.288 67.5879 100.288C67.4062 100.288 67.2158 100.3 67.0166 100.323C66.999 100.323 66.9668 100.326 66.9199 100.332C66.873 100.338 66.8203 100.344 66.7617 100.35C66.709 100.361 66.6592 100.373 66.6123 100.385C66.5654 100.396 66.5361 100.405 66.5244 100.411H66.4805C66.375 100.411 66.2754 100.396 66.1816 100.367C66.0938 100.338 65.9912 100.323 65.874 100.323C65.8623 100.323 65.8301 100.323 65.7773 100.323C65.7305 100.317 65.6748 100.314 65.6104 100.314C65.5518 100.314 65.4902 100.314 65.4258 100.314C65.3672 100.309 65.3174 100.306 65.2764 100.306Z" fill="#151618"/>
</svg>
