<svg width="156" height="20" viewBox="0 0 156 20" fill="none" xmlns="http://www.w3.org/2000/svg">
<g clip-path="url(#clip0_791_382)">
<path d="M4.72671 19.9007V18.577C4.72671 18.0695 4.41451 17.7386 3.87937 17.7386C3.61186 17.7386 3.322 17.8268 3.12131 18.1137C2.96531 17.871 2.74238 17.7386 2.40794 17.7386C2.18491 17.7386 1.96208 17.8047 1.78363 18.0475V17.7827H1.31543V19.9007H1.78363V18.7314C1.78363 18.3564 1.98432 18.1798 2.29652 18.1798C2.60852 18.1798 2.76473 18.3784 2.76473 18.7314V19.9007H3.23293V18.7314C3.23293 18.3564 3.45576 18.1798 3.74562 18.1798C4.05782 18.1798 4.21382 18.3784 4.21382 18.7314V19.9007H4.72671ZM11.6605 17.7827H10.9025V17.1429H10.4343V17.7827H10.0107V18.2018H10.4342V19.1727C10.4342 19.6581 10.6349 19.9448 11.17 19.9448C11.3707 19.9448 11.5936 19.8787 11.7498 19.7905L11.6159 19.3933C11.4821 19.4815 11.3261 19.5036 11.2146 19.5036C10.9917 19.5036 10.9025 19.3713 10.9025 19.1506V18.2018H11.6605V17.7827ZM15.6291 17.7385C15.3616 17.7385 15.1833 17.871 15.0718 18.0475V17.7827H14.6036V19.9007H15.0718V18.7094C15.0718 18.3564 15.2278 18.1578 15.5176 18.1578C15.6068 18.1578 15.7183 18.1799 15.8075 18.2019L15.9412 17.7607C15.8521 17.7386 15.7183 17.7386 15.6291 17.7386V17.7385ZM9.63167 17.9592C9.40864 17.8047 9.09654 17.7386 8.76209 17.7386C8.22706 17.7386 7.87037 18.0033 7.87037 18.4225C7.87037 18.7756 8.13789 18.9741 8.60609 19.0403L8.82902 19.0624C9.0743 19.1064 9.20805 19.1727 9.20805 19.283C9.20805 19.4374 9.02971 19.5478 8.71751 19.5478C8.40541 19.5478 8.16013 19.4374 8.00403 19.3272L7.7811 19.6801C8.02637 19.8566 8.36082 19.9448 8.69516 19.9448C9.31947 19.9448 9.67626 19.6581 9.67626 19.2609C9.67626 18.8858 9.3864 18.6873 8.94044 18.6211L8.71751 18.599C8.51682 18.5769 8.36082 18.5329 8.36082 18.4005C8.36082 18.246 8.51682 18.1578 8.76209 18.1578C9.02971 18.1578 9.29723 18.2681 9.43098 18.3343L9.63167 17.9592ZM22.0726 17.7386C21.805 17.7386 21.6266 17.871 21.5151 18.0475V17.7827H21.0469V19.9007H21.5151V18.7094C21.5151 18.3564 21.6712 18.1578 21.961 18.1578C22.0502 18.1578 22.1617 18.1799 22.2509 18.2019L22.3847 17.7607C22.2955 17.7386 22.1617 17.7386 22.0726 17.7386ZM16.0973 18.8417C16.0973 19.4815 16.5432 19.9448 17.2344 19.9448C17.5465 19.9448 17.7695 19.8787 17.9924 19.7022L17.7695 19.3272C17.5911 19.4595 17.4128 19.5256 17.2121 19.5256C16.8331 19.5256 16.5655 19.2609 16.5655 18.8417C16.5655 18.4446 16.8331 18.1798 17.2121 18.1578C17.4128 18.1578 17.5911 18.2239 17.7695 18.3564L17.9924 17.9813C17.7695 17.8047 17.5465 17.7386 17.2344 17.7386C16.5432 17.7386 16.0973 18.2019 16.0973 18.8417ZM20.4227 18.8417V17.7827H19.9545V18.0475C19.7984 17.849 19.5755 17.7386 19.2856 17.7386C18.6836 17.7386 18.2154 18.2019 18.2154 18.8417C18.2154 19.4815 18.6836 19.9448 19.2856 19.9448C19.5977 19.9448 19.8207 19.8346 19.9545 19.636V19.9007H20.4227V18.8417ZM18.7059 18.8417C18.7059 18.4666 18.9511 18.1578 19.3524 18.1578C19.7315 18.1578 19.9991 18.4446 19.9991 18.8417C19.9991 19.2168 19.7315 19.5256 19.3524 19.5256C18.9511 19.5035 18.7059 19.2168 18.7059 18.8417ZM13.1098 17.7386C12.4855 17.7386 12.0395 18.1798 12.0395 18.8417C12.0395 19.5036 12.4854 19.9448 13.132 19.9448C13.4441 19.9448 13.7563 19.8566 14.0016 19.6581L13.7786 19.3272C13.6002 19.4595 13.3773 19.5478 13.1544 19.5478C12.8645 19.5478 12.5746 19.4154 12.5077 19.0402H14.0908V18.8638C14.1131 18.1798 13.7118 17.7386 13.1098 17.7386ZM13.1098 18.1357C13.3995 18.1357 13.6003 18.3123 13.6448 18.6432H12.5301C12.5746 18.3564 12.7753 18.1357 13.1098 18.1357ZM24.7257 18.8417V16.9443H24.2575V18.0475C24.1014 17.849 23.8785 17.7386 23.5886 17.7386C22.9866 17.7386 22.5184 18.2019 22.5184 18.8417C22.5184 19.4815 22.9866 19.9448 23.5886 19.9448C23.9008 19.9448 24.1237 19.8346 24.2575 19.636V19.9007H24.7257V18.8417ZM23.009 18.8417C23.009 18.4666 23.2541 18.1578 23.6555 18.1578C24.0346 18.1578 24.3021 18.4446 24.3021 18.8417C24.3021 19.2168 24.0346 19.5256 23.6555 19.5256C23.2541 19.5035 23.009 19.2168 23.009 18.8417ZM7.35748 18.8417V17.7827H6.88928V18.0475C6.73318 17.849 6.51025 17.7386 6.22039 17.7386C5.61843 17.7386 5.15023 18.2019 5.15023 18.8417C5.15023 19.4815 5.61843 19.9448 6.22039 19.9448C6.53259 19.9448 6.75552 19.8346 6.88928 19.636V19.9007H7.35748V18.8417ZM5.61843 18.8417C5.61843 18.4666 5.8637 18.1578 6.26498 18.1578C6.64401 18.1578 6.91162 18.4446 6.91162 18.8417C6.91162 19.2168 6.64401 19.5256 6.26498 19.5256C5.8637 19.5035 5.61843 19.2168 5.61843 18.8417Z" fill="#151618"/>
<path d="M9.47559 1.69873H16.4986V14.1863H9.47559V1.69873Z" fill="#FF5F00"/>
<path d="M9.92154 7.94261C9.92154 5.40543 11.1255 3.15497 12.9759 1.69879C11.616 0.639799 9.8993 0 8.02648 0C3.58952 0 0 3.55206 0 7.94261C0 12.3331 3.58952 15.8852 8.02638 15.8852C9.8992 15.8852 11.6159 15.2454 12.9759 14.1863C11.1255 12.7523 9.92154 10.4798 9.92154 7.94261Z" fill="#EB001B"/>
<path d="M25.9742 7.94261C25.9742 12.3331 22.3847 15.8852 17.9478 15.8852C16.075 15.8852 14.3583 15.2454 12.9983 14.1863C14.8711 12.7303 16.0528 10.4798 16.0528 7.94261C16.0528 5.40543 14.8488 3.15497 12.9983 1.69879C14.3582 0.639799 16.075 0 17.9478 0C22.3847 0 25.9742 3.57417 25.9742 7.94261Z" fill="#F79E1B"/>
</g>
<path d="M62.0324 8.19688C62.0148 9.58993 63.2752 10.3673 64.2247 10.8295C65.2003 11.3036 65.5279 11.6078 65.5241 12.0319C65.5168 12.6808 64.7459 12.9673 64.0246 12.9784C62.766 12.9979 62.0343 12.639 61.4525 12.3675L60.9992 14.4867C61.5828 14.7554 62.6636 14.9897 63.7843 15C66.4151 15 68.1362 13.7028 68.1455 11.6915C68.1558 9.13884 64.611 8.99756 64.6352 7.85661C64.6436 7.51064 64.9741 7.14146 65.6982 7.04759C66.0566 7.00017 67.0461 6.96388 68.1679 7.47992L68.6082 5.42955C68.0049 5.21012 67.2296 5 66.2642 5C63.7881 5 62.0465 6.3149 62.0324 8.19688ZM72.839 5.17661C72.3586 5.17661 71.9538 5.45652 71.7731 5.88607L68.0152 14.8494H70.644L71.1672 13.4052H74.3795L74.683 14.8494H77L74.9781 5.17661H72.839ZM73.2067 7.78959L73.9654 11.4218H71.8877L73.2067 7.78959ZM58.8451 5.17673L56.773 14.8493H59.2781L61.3492 5.17649L58.8451 5.17673ZM55.1393 5.17649L52.5319 11.7603L51.4772 6.16236C51.3534 5.53745 50.8647 5.17661 50.322 5.17661H46.0597L46 5.45749C46.875 5.64717 47.8692 5.95309 48.4715 6.28042C48.8401 6.48038 48.9452 6.65518 49.0663 7.13033L51.064 14.8494H53.7112L57.7698 5.17661L55.1393 5.17649Z" fill="url(#paint0_linear_791_382)"/>
<g clip-path="url(#clip1_791_382)">
<path d="M117.556 7.23868C118.354 7.23868 118.97 7.4645 119.441 7.91615C119.912 8.36774 120.129 8.96991 120.129 9.72262V13.3356H119.115V12.5077H119.078C118.644 13.1851 118.028 13.5239 117.303 13.5239C116.687 13.5239 116.143 13.3356 115.708 12.9593C115.31 12.583 115.056 12.0561 115.056 11.4916C115.056 10.8894 115.273 10.4001 115.708 10.0237C116.143 9.64738 116.759 9.49685 117.484 9.49685C118.136 9.49685 118.644 9.6098 119.042 9.87321V9.6098C119.042 9.2585 118.916 8.90727 118.663 8.67838L118.607 8.63127C118.317 8.3678 117.955 8.21727 117.556 8.21727C116.94 8.21727 116.469 8.48074 116.143 9.00762L115.201 8.40533C115.781 7.61497 116.542 7.23868 117.556 7.23868ZM112.447 4.6795C113.097 4.6795 113.715 4.9145 114.209 5.35274L114.295 5.43215C114.802 5.8838 115.056 6.56127 115.056 7.27633C115.056 7.99138 114.802 8.63121 114.295 9.12044C113.788 9.60974 113.172 9.87315 112.447 9.87315L110.707 9.8355V13.3356H109.62V4.67944L112.447 4.6795ZM117.701 10.4001C117.266 10.4001 116.904 10.513 116.614 10.7388C116.324 10.927 116.179 11.1904 116.179 11.5291C116.179 11.8302 116.324 12.0936 116.542 12.2442C116.795 12.4324 117.085 12.5453 117.375 12.5453C117.781 12.5453 118.187 12.3813 118.504 12.0841L118.571 12.0184C118.933 11.6797 119.115 11.2657 119.115 10.814C118.789 10.5506 118.317 10.4 117.701 10.4L117.701 10.4001ZM112.519 5.73327H110.707V8.74415H112.519C112.918 8.74415 113.316 8.59362 113.57 8.29256C114.15 7.72803 114.15 6.78715 113.606 6.22256L113.57 6.18491C113.28 5.88386 112.918 5.69568 112.519 5.73333L112.519 5.73327ZM126 7.42685L122.412 15.9701H121.325L122.666 12.9969L120.311 7.4645H121.47L123.173 11.7173H123.21L124.877 7.4645H126V7.42685Z" fill="#5F6368"/>
<path d="M106.395 9.08277C106.395 8.74406 106.359 8.40536 106.322 8.06665H101.793V9.98606H104.366C104.257 10.5882 103.931 11.1527 103.423 11.4915V12.7334H104.982C105.888 11.8678 106.395 10.5882 106.395 9.08283L106.395 9.08277Z" fill="#4285F4"/>
<path d="M101.792 13.9376C103.097 13.9376 104.184 13.486 104.981 12.7333L103.423 11.4914C102.988 11.7924 102.445 11.9806 101.792 11.9806C100.56 11.9806 99.4732 11.115 99.1108 9.91064H97.5164V11.1902C98.3498 12.8838 99.9806 13.9376 101.792 13.9376Z" fill="#34A853"/>
<path d="M99.1109 9.91067C98.8935 9.30849 98.8935 8.63108 99.1109 7.99126V6.71167H97.5164C96.8279 8.1042 96.8279 9.76014 97.5164 11.1903L99.1109 9.91067Z" fill="#FBBC04"/>
<path d="M101.793 5.95908C102.481 5.95908 103.133 6.22255 103.641 6.71178L105.018 5.28167C104.148 4.45367 102.989 3.96443 101.829 4.00202C100.017 4.00202 98.35 5.05584 97.5527 6.74943L99.1472 8.02902C99.4734 6.82467 100.561 5.95908 101.793 5.95908Z" fill="#EA4335"/>
</g>
<g clip-path="url(#clip2_791_382)">
<path d="M154.483 4.9341C153.939 4.30303 152.955 4.03247 151.696 4.03247H148.043C147.918 4.03248 147.798 4.07767 147.703 4.15993C147.609 4.24219 147.546 4.35612 147.526 4.48124L146.005 14.2945C145.975 14.488 146.122 14.6632 146.315 14.6632H148.57L149.137 11.0088L149.119 11.1232C149.16 10.8649 149.377 10.6744 149.634 10.6744H150.706C152.811 10.6744 154.46 9.80447 154.941 7.28809C154.955 7.21366 154.968 7.14123 154.979 7.07046C154.918 7.03772 154.918 7.03772 154.979 7.07046C155.122 6.14038 154.978 5.50728 154.483 4.9341Z" fill="#27346A"/>
<path d="M150 6.73541C150.061 6.70555 150.129 6.69007 150.197 6.69011H153.061C153.4 6.69011 153.717 6.71256 154.006 6.75989C154.087 6.77301 154.167 6.78867 154.247 6.80685C154.36 6.83229 154.472 6.86341 154.582 6.90011C154.725 6.94839 154.857 7.00462 154.979 7.07046C155.122 6.14002 154.978 5.50728 154.483 4.9341C153.938 4.30303 152.955 4.03247 151.696 4.03247H148.043C147.785 4.03247 147.567 4.22296 147.526 4.48124L146.005 14.2941C145.975 14.488 146.122 14.663 146.315 14.663H148.57L149.745 7.0827C149.757 7.00819 149.786 6.93765 149.831 6.87716C149.875 6.81666 149.933 6.76802 150 6.73541Z" fill="#27346A"/>
<path d="M154.941 7.28794C154.46 9.80397 152.811 10.6742 150.706 10.6742H149.634C149.377 10.6742 149.159 10.8647 149.119 11.1231L148.415 15.667C148.388 15.8363 148.517 15.9898 148.686 15.9898H150.587C150.696 15.9897 150.801 15.9502 150.884 15.8782C150.967 15.8063 151.021 15.7066 151.039 15.5972L151.057 15.4986L151.415 13.1886L151.438 13.0609C151.455 12.9515 151.51 12.8519 151.593 12.7799C151.676 12.7079 151.781 12.6684 151.89 12.6684H152.175C154.016 12.6684 155.458 11.9073 155.88 9.7061C156.056 8.78623 155.965 8.01823 155.499 7.47879C155.358 7.3154 155.183 7.18046 154.979 7.07031C154.968 7.14144 154.956 7.21352 154.941 7.28794Z" fill="#2790C3"/>
<path d="M154.475 6.86593C154.4 6.84363 154.324 6.82388 154.247 6.80672C154.167 6.78884 154.087 6.77328 154.006 6.76008C153.717 6.71243 153.401 6.68994 153.061 6.68994H150.198C150.129 6.68978 150.062 6.7054 150 6.7356C149.933 6.7681 149.875 6.81672 149.831 6.87723C149.786 6.93774 149.757 7.00833 149.746 7.08288L149.137 11.0086L149.12 11.1231C149.16 10.8648 149.377 10.6742 149.634 10.6742H150.706C152.812 10.6742 154.46 9.80434 154.942 7.28796C154.956 7.21353 154.968 7.14141 154.979 7.07033C154.857 7.00484 154.725 6.94826 154.583 6.9003C154.547 6.8882 154.511 6.87675 154.475 6.86593" fill="#1F264F"/>
</g>
<defs>
<linearGradient id="paint0_linear_791_382" x1="1471.19" y1="35.06" x2="1500.11" y2="-991.956" gradientUnits="userSpaceOnUse">
<stop stop-color="#222357"/>
<stop offset="1" stop-color="#254AA5"/>
</linearGradient>
<clipPath id="clip0_791_382">
<rect width="26" height="20" fill="white"/>
</clipPath>
<clipPath id="clip1_791_382">
<rect width="29" height="12" fill="white" transform="translate(97 4)"/>
</clipPath>
<clipPath id="clip2_791_382">
<rect width="10" height="12" fill="white" transform="translate(146 4)"/>
</clipPath>
</defs>
</svg>
